<svg width="297" height="323" viewBox="0 0 297 323" fill="none" xmlns="http://www.w3.org/2000/svg">
<path d="M0.730469 0V26.8406C0.731219 26.9945 0.771755 27.1457 0.848192 27.2795C0.924629 27.4132 1.03437 27.525 1.16678 27.604L45.9943 54.4446C46.1335 54.5279 46.2922 54.5731 46.4545 54.5759C46.617 54.5746 46.776 54.5292 46.9147 54.4446L91.7422 27.604C91.7785 27.5816 91.8126 27.5556 91.8438 27.5265L91.8856 27.4907C91.9146 27.4658 91.9406 27.4378 91.9633 27.4072L92.0052 27.3595L92.059 27.27C92.0579 27.2502 92.0579 27.2302 92.059 27.2104C92.0615 27.1806 92.0615 27.1507 92.059 27.1209C92.0624 27.0952 92.0624 27.0691 92.059 27.0434C92.0618 27.0176 92.0618 26.9916 92.059 26.9658C92.0619 26.9321 92.0619 26.8982 92.059 26.8644V0.0238452H90.2659V26.3276L46.3349 52.6314L2.40402 26.3276V0.0238452L0.730469 0Z" fill="#535353"/>
<path d="M296.999 310.221L271.225 294.775V242.126L296.999 226.68V224.592L270.329 240.575L227.284 214.773L270.789 188.69C270.922 188.611 271.032 188.5 271.109 188.366C271.185 188.232 271.225 188.08 271.225 187.926V135.814L296.999 151.26V149.171L272.073 134.257L296.999 119.342V117.254L271.225 132.7V81.0468L296.999 65.6011V63.513L270.329 79.4957L227.284 53.6931L270.789 27.6102C270.922 27.532 271.032 27.4204 271.109 27.2864C271.185 27.1524 271.225 27.0008 271.225 26.8465V0H269.433V26.3096L225.54 52.6193L182.495 26.8167L226 0.733795L227.236 0H223.755L181.647 25.2358V0H179.856V25.2358L137.754 0H135.073C135.078 0.148462 135.119 0.293404 135.194 0.42159C135.27 0.549775 135.376 0.657107 135.503 0.733795L179.014 26.8167L135.503 52.8937L90.7142 79.7403C90.5814 79.8203 90.4716 79.9331 90.3952 80.0679C90.3188 80.2028 90.2785 80.355 90.2782 80.5099V132.622L46.845 106.587C46.6441 106.476 46.4081 106.446 46.1859 106.504C45.9636 106.561 45.772 106.702 45.6506 106.897C45.59 106.997 45.5497 107.108 45.5322 107.224C45.5146 107.34 45.5202 107.458 45.5485 107.572C45.5768 107.685 45.6273 107.792 45.6971 107.886C45.7669 107.981 45.8546 108.06 45.9552 108.12L89.466 134.203L45.9552 160.28L1.1664 187.127C1.03364 187.207 0.923799 187.319 0.847434 187.454C0.77107 187.589 0.730771 187.741 0.730469 187.896V241.589C0.730469 241.827 0.82484 242.054 0.99283 242.222C1.16082 242.39 1.38867 242.484 1.62624 242.484C1.86382 242.484 2.09167 242.39 2.25966 242.222C2.42765 242.054 2.52202 241.827 2.52202 241.589V188.433L46.4151 162.123L90.3081 188.433V240.038L46.8749 214.003C46.674 213.892 46.4379 213.862 46.2157 213.92C45.9934 213.978 45.8018 214.118 45.6805 214.313C45.5673 214.513 45.5358 214.749 45.5925 214.971C45.6493 215.193 45.79 215.385 45.9851 215.506L89.4959 241.589L45.9254 267.666C45.8246 267.727 45.7367 267.807 45.6668 267.901C45.5969 267.996 45.5465 268.104 45.5182 268.218C45.4899 268.332 45.4844 268.45 45.502 268.567C45.5196 268.683 45.56 268.795 45.6208 268.895C45.7 269.027 45.8119 269.137 45.9458 269.213C46.0797 269.289 46.231 269.33 46.3852 269.331C46.5469 269.331 46.7057 269.288 46.845 269.205L91.6338 242.359L135.957 215.793L179.008 241.595L135.503 267.666C135.402 267.727 135.314 267.807 135.244 267.901C135.175 267.996 135.124 268.104 135.096 268.218C135.068 268.332 135.062 268.45 135.08 268.567C135.097 268.683 135.138 268.795 135.198 268.895C135.278 269.027 135.389 269.137 135.523 269.213C135.657 269.289 135.809 269.33 135.963 269.331C136.125 269.332 136.285 269.286 136.423 269.199L179.856 243.17V295.282C179.856 295.437 179.896 295.588 179.973 295.722C180.049 295.856 180.159 295.967 180.292 296.046L225.081 322.893C225.138 322.923 225.198 322.949 225.26 322.97H225.302C225.372 322.989 225.444 322.999 225.517 323C225.589 323 225.662 322.99 225.732 322.97H225.767C225.823 322.953 225.877 322.932 225.929 322.905H225.97C226.026 322.87 226.078 322.83 226.126 322.785C226.176 322.735 226.22 322.679 226.257 322.618V322.576C226.275 322.544 226.291 322.51 226.305 322.475C226.308 322.449 226.308 322.423 226.305 322.397C226.305 322.368 226.305 322.338 226.305 322.308C226.308 322.276 226.308 322.244 226.305 322.212C226.308 322.195 226.308 322.177 226.305 322.159V268.466C226.306 268.311 226.266 268.158 226.189 268.023C226.113 267.888 226.002 267.775 225.869 267.696L182.364 241.619L225.409 215.817L269.302 242.126V295.282C269.302 295.282 269.302 295.354 269.302 295.384C269.302 295.414 269.302 295.438 269.302 295.461C269.309 295.492 269.319 295.522 269.332 295.551C269.332 295.551 269.332 295.599 269.332 295.628L269.38 295.706C269.391 295.731 269.405 295.755 269.422 295.778C269.438 295.801 269.456 295.823 269.475 295.843L269.535 295.909L269.595 295.957L269.672 296.016L296.802 312.279L296.999 310.221ZM92.0697 81.0468L135.067 55.2741V106.879L92.0697 132.652V81.0468ZM91.174 186.882L48.129 161.079L91.174 135.277L134.225 161.079L91.174 186.882ZM135.067 214.265L92.0697 240.038V188.433L135.067 162.66V214.265ZM92.9178 134.203L135.963 108.4L179.014 134.203L135.963 160.006L92.9178 134.203ZM179.856 240.008L136.859 214.236V162.631L179.856 188.403V240.008ZM179.856 186.315L137.707 161.05L179.856 135.784V186.315ZM179.856 132.622L136.859 106.849V55.2443L179.856 81.017V132.622ZM137.707 53.6633L180.752 27.8608L223.803 53.6633L180.752 79.4658L137.707 53.6633ZM224.645 55.2443V106.849L181.647 132.622V81.0468L224.645 55.2443ZM224.645 268.943V320.548L181.647 294.775V243.17L224.645 268.943ZM181.647 240.008V189.477L223.803 214.743L181.647 240.008ZM224.645 213.162L181.647 187.389V135.784L224.645 161.557V213.162ZM182.495 134.203L226 108.12C226.133 108.042 226.244 107.93 226.32 107.796C226.397 107.662 226.437 107.511 226.436 107.356V55.2443L269.433 81.017V133.696L225.54 160.006L182.495 134.203ZM226.436 161.587L269.433 135.814V187.419L226.436 213.192V161.587Z" fill="#535353"/>
</svg>
