<svg width="352" height="369" viewBox="0 0 352 369" fill="none" xmlns="http://www.w3.org/2000/svg">
<path d="M242.337 0L228.163 8.51159L213.989 0H211.594L226.963 9.22705L166.536 45.5185L106.105 9.22705L121.475 0H119.084L105.526 8.14151V0H104.293V8.14151L90.7352 0H88.34L103.71 9.22705L42.9621 45.7076C42.8716 45.7623 42.7968 45.8396 42.7449 45.9318C42.6931 46.024 42.666 46.1281 42.6663 46.234V119.162L0 93.5411V94.9803L42.0829 120.248L0 145.519V146.959L43.2826 120.967L103.71 157.255L42.9621 193.735L0 219.533V220.972L42.6663 195.351V267.186L0 241.569V243.008L42.6663 268.625V341.2L0 315.583V317.018L42.0829 342.289L0 367.561V369L43.6154 342.82L105.242 305.813L105.291 305.772C105.314 305.757 105.336 305.74 105.357 305.722C105.379 305.7 105.398 305.675 105.415 305.648C105.428 305.634 105.441 305.619 105.452 305.603V305.57C105.468 305.537 105.482 305.503 105.493 305.467C105.495 305.454 105.495 305.44 105.493 305.426C105.493 305.389 105.493 305.352 105.493 305.319C105.493 305.286 105.493 305.319 105.493 305.291V232.358L166.183 268.806H166.208C166.241 268.826 166.277 268.843 166.314 268.855H166.355C166.405 268.86 166.454 268.86 166.503 268.855C166.553 268.859 166.602 268.859 166.651 268.855H166.688C166.726 268.843 166.761 268.826 166.795 268.806H166.82L228.446 231.799C228.538 231.744 228.613 231.666 228.666 231.573C228.718 231.48 228.746 231.375 228.746 231.268V157.608L289.757 120.971L350.767 157.608V231.273C350.767 231.436 350.832 231.593 350.948 231.709C351.064 231.824 351.22 231.889 351.384 231.889C351.547 231.889 351.704 231.824 351.819 231.709C351.935 231.593 352 231.436 352 231.273V157.259C352 157.152 351.972 157.047 351.92 156.954C351.867 156.861 351.791 156.784 351.7 156.728L290.073 119.721C289.977 119.665 289.867 119.635 289.755 119.635C289.643 119.635 289.533 119.665 289.436 119.721L227.81 156.728C227.781 156.747 227.753 156.767 227.727 156.79C227.727 156.815 227.686 156.835 227.666 156.864L227.621 156.942C227.62 156.952 227.62 156.961 227.621 156.971C227.621 156.971 227.621 157.02 227.596 157.045V157.086V157.148C227.596 157.148 227.596 157.189 227.596 157.209V230.919L167.202 267.186V194.262C167.201 194.155 167.173 194.051 167.121 193.959C167.068 193.867 166.993 193.79 166.902 193.735L106.105 157.255L166.869 120.778L228.496 83.7713C228.587 83.7162 228.663 83.6384 228.715 83.5454C228.768 83.4525 228.795 83.3476 228.796 83.2409V10.3167L289.486 46.7644C289.555 46.8063 289.632 46.8341 289.712 46.8462C289.792 46.8583 289.874 46.8545 289.952 46.8351C290.031 46.8156 290.105 46.7808 290.17 46.7327C290.235 46.6846 290.29 46.6241 290.332 46.5547C290.374 46.4853 290.402 46.4084 290.414 46.3282C290.426 46.2481 290.422 46.1664 290.403 46.0877C290.383 46.009 290.349 45.935 290.3 45.8698C290.252 45.8046 290.192 45.7495 290.123 45.7076L229.359 9.22705L244.732 0H242.337ZM43.8988 46.5835L104.293 10.3167V82.8955L43.8988 119.162V46.5835ZM43.8988 195.351L103.71 231.268L43.8988 267.186V195.351ZM43.8988 341.2V269.365L103.71 305.282L43.8988 341.2ZM104.293 304.193L44.4781 268.275L104.293 232.358V304.193ZM104.293 230.179L44.4781 194.262L104.293 158.344V230.179ZM165.92 194.611V267.186L105.526 230.919V158.344L165.92 194.611ZM104.909 156.539L44.4781 120.248L104.909 83.9604L165.337 120.248L104.909 156.539ZM165.92 119.162L105.526 82.8955V10.3167L165.92 46.5835V119.162ZM227.547 82.8955L167.152 119.162V46.5835L227.547 10.3167V82.8955Z" fill="#535353"/>
</svg>
