<svg width="39" height="848" viewBox="0 0 39 848" fill="none" xmlns="http://www.w3.org/2000/svg">
<rect x="16" y="848" width="848" height="7.00004" transform="rotate(-90 16 848)" fill="#12B7B6"/>
<rect y="357" width="39" height="114" rx="19.5" fill="#12B7B6"/>
<line x1="0.5" y1="-0.5" x2="17.1095" y2="-0.5" transform="matrix(-0.881702 0.471807 -0.582243 -0.813015 28.0029 371)" stroke="white" stroke-linecap="round"/>
<line x1="0.5" y1="-0.5" x2="17.1095" y2="-0.5" transform="matrix(-0.881702 0.471807 -0.582243 -0.813015 28.0029 380.586)" stroke="white" stroke-linecap="round"/>
<line x1="0.5" y1="-0.5" x2="17.1095" y2="-0.5" transform="matrix(-0.881702 0.471807 -0.582243 -0.813015 28.0029 390.173)" stroke="white" stroke-linecap="round"/>
<line x1="0.5" y1="-0.5" x2="17.1095" y2="-0.5" transform="matrix(-0.881702 0.471807 -0.582243 -0.813015 28.0029 399.76)" stroke="white" stroke-linecap="round"/>
<line x1="0.5" y1="-0.5" x2="17.1095" y2="-0.5" transform="matrix(-0.881702 0.471807 -0.582243 -0.813015 28.0029 409.346)" stroke="white" stroke-linecap="round"/>
<line x1="0.5" y1="-0.5" x2="17.1095" y2="-0.5" transform="matrix(-0.881702 0.471807 -0.582243 -0.813015 28.0029 418.932)" stroke="white" stroke-linecap="round"/>
<line x1="0.5" y1="-0.5" x2="17.1095" y2="-0.5" transform="matrix(-0.881702 0.471807 -0.582243 -0.813015 28.0029 428.519)" stroke="white" stroke-linecap="round"/>
<line x1="0.5" y1="-0.5" x2="17.1095" y2="-0.5" transform="matrix(-0.881702 0.471807 -0.582243 -0.813015 28.0029 438.105)" stroke="white" stroke-linecap="round"/>
<line x1="0.5" y1="-0.5" x2="17.1095" y2="-0.5" transform="matrix(-0.881702 0.471807 -0.582243 -0.813015 28.0029 447.691)" stroke="white" stroke-linecap="round"/>
</svg>
