<svg width="85" height="74" viewBox="0 0 85 74" fill="none" xmlns="http://www.w3.org/2000/svg">
<path d="M63.5926 66.8499H21.1984C16.982 66.8499 12.9383 65.1818 9.95687 62.2126C6.97545 59.2433 5.30051 55.2161 5.30051 51.017V43.9801C5.30051 41.6052 1.32605 40.4617 1.29072 40.4617C0.908636 40.3553 0.573665 40.1238 0.339743 39.8047C0.10582 39.4856 -0.0134524 39.0973 0.00120651 38.7025V35.184C0.00120651 34.7174 0.187337 34.27 0.518606 33.9401C0.849876 33.6101 1.29917 33.4248 1.76766 33.4248H47.6947C48.1632 33.4248 48.6125 33.6101 48.9438 33.9401C49.2751 34.27 49.4612 34.7174 49.4612 35.184C49.4612 35.6506 49.2751 36.0981 48.9438 36.428C48.6125 36.7579 48.1632 36.9432 47.6947 36.9432H3.53409V37.4534C5.91876 38.4562 8.83337 40.5672 8.83337 43.9801V51.017C8.83337 54.283 10.1361 57.4152 12.455 59.7246C14.7739 62.0341 17.919 63.3315 21.1984 63.3315H63.5926C66.872 63.3315 70.0171 62.0341 72.336 59.7246C74.6548 57.4152 75.9576 54.283 75.9576 51.017V43.9801C75.9576 40.5672 78.8722 38.4562 81.2569 37.4534V36.9432H65.359C64.8905 36.9432 64.4412 36.7579 64.11 36.428C63.7787 36.0981 63.5926 35.6506 63.5926 35.184C63.5926 34.7174 63.7787 34.27 64.11 33.9401C64.4412 33.6101 64.8905 33.4248 65.359 33.4248H83.0233C83.4918 33.4248 83.9411 33.6101 84.2723 33.9401C84.6036 34.27 84.7897 34.7174 84.7897 35.184V38.7025C84.8034 39.0996 84.6816 39.4897 84.4442 39.8091C84.2069 40.1286 83.8679 40.3586 83.4825 40.4617C83.4825 40.4617 79.4904 41.6755 79.4904 43.9801V51.017C79.4904 55.2161 77.8155 59.2433 74.8341 62.2126C71.8526 65.1818 67.809 66.8499 63.5926 66.8499Z" fill="#12B7B6"/>
<path d="M67.1229 73.8869C66.6544 73.8869 66.2051 73.7016 65.8739 73.3717C65.5426 73.0418 65.3565 72.5943 65.3565 72.1277V70.65L63.5901 65.6538C63.5156 65.4332 63.4859 65.2002 63.5025 64.9681C63.5192 64.736 63.5819 64.5095 63.687 64.3017C63.7922 64.0939 63.9377 63.9089 64.1151 63.7575C64.2925 63.6061 64.4983 63.4912 64.7206 63.4196C64.9409 63.3451 65.1739 63.3147 65.4061 63.3301C65.6383 63.3455 65.8651 63.4064 66.0736 63.5094C66.282 63.6124 66.468 63.7554 66.6208 63.9302C66.7736 64.105 66.8902 64.3081 66.964 64.5279L68.7304 69.8056C68.7855 69.9883 68.8152 70.1777 68.8187 70.3685V72.1277C68.8191 72.5824 68.6427 73.0195 68.3265 73.3474C68.0104 73.6754 67.5791 73.8687 67.1229 73.8869Z" fill="#12B7B6"/>
<path d="M17.6661 73.887C17.1976 73.887 16.7483 73.7017 16.417 73.3717C16.0857 73.0418 15.8996 72.5944 15.8996 72.1278V70.3686C15.8655 70.1825 15.8655 69.9917 15.8996 69.8056L17.6661 64.528C17.8152 64.0882 18.1328 63.7249 18.5497 63.5173C18.9666 63.3097 19.449 63.2746 19.8918 63.4197C20.114 63.4913 20.3199 63.6062 20.4973 63.7576C20.6747 63.909 20.8202 64.0939 20.9253 64.3017C21.0305 64.5095 21.0932 64.736 21.1098 64.9681C21.1265 65.2002 21.0967 65.4333 21.0223 65.6539L19.3442 70.6501V72.1278C19.3447 72.5795 19.1708 73.0142 18.8584 73.3417C18.546 73.6692 18.1191 73.8644 17.6661 73.887Z" fill="#12B7B6"/>
<path d="M31.796 14.0736H24.7303C24.2618 14.0736 23.8125 13.8883 23.4812 13.5583C23.15 13.2284 22.9639 12.781 22.9639 12.3144C22.9639 11.8478 23.15 11.4004 23.4812 11.0704C23.8125 10.7405 24.2618 10.5552 24.7303 10.5552H31.796C32.2645 10.5552 32.7138 10.7405 33.0451 11.0704C33.3763 11.4004 33.5624 11.8478 33.5624 12.3144C33.5624 12.781 33.3763 13.2284 33.0451 13.5583C32.7138 13.8883 32.2645 14.0736 31.796 14.0736Z" fill="#12B7B6"/>
<path d="M12.3641 36.9435C11.8956 36.9435 11.4463 36.7582 11.115 36.4283C10.7838 36.0984 10.5977 35.6509 10.5977 35.1843V8.79608C10.5977 6.46322 11.5282 4.22589 13.1845 2.57631C14.8409 0.926721 17.0874 0 19.4298 0H21.1962C23.5386 0 25.7851 0.926721 27.4415 2.57631C29.0978 4.22589 30.0283 6.46322 30.0283 8.79608V12.3145C30.0283 12.7811 29.8422 13.2286 29.511 13.5585C29.1797 13.8884 28.7304 14.0737 28.2619 14.0737C27.7934 14.0737 27.3441 13.8884 27.0129 13.5585C26.6816 13.2286 26.4955 12.7811 26.4955 12.3145V8.79608C26.4955 7.39636 25.9372 6.05397 24.9434 5.06422C23.9496 4.07447 22.6017 3.51843 21.1962 3.51843H19.4298C18.0243 3.51843 16.6764 4.07447 15.6826 5.06422C14.6888 6.05397 14.1305 7.39636 14.1305 8.79608V35.1843C14.1305 35.6509 13.9444 36.0984 13.6131 36.4283C13.2819 36.7582 12.8326 36.9435 12.3641 36.9435Z" fill="#12B7B6"/>
<path d="M65.3584 51.0173H47.6942C47.2257 51.0173 46.7764 50.832 46.4451 50.5021C46.1138 50.1722 45.9277 49.7247 45.9277 49.2581V33.4252C45.9277 32.492 46.2999 31.5971 46.9625 30.9373C47.625 30.2774 48.5236 29.9067 49.4606 29.9067H63.592C64.529 29.9067 65.4276 30.2774 66.0901 30.9373C66.7526 31.5971 67.1249 32.492 67.1249 33.4252V49.2581C67.1249 49.7247 66.9387 50.1722 66.6075 50.5021C66.2762 50.832 65.8269 51.0173 65.3584 51.0173ZM49.4606 47.4989H63.592V33.4252H49.4606V47.4989Z" fill="#12B7B6"/>
<path d="M24.7303 22.8699C24.2618 22.8699 23.8125 22.6845 23.4812 22.3546C23.15 22.0247 22.9639 21.5772 22.9639 21.1107V17.5922C22.9639 17.1257 23.15 16.6782 23.4812 16.3483C23.8125 16.0184 24.2618 15.833 24.7303 15.833C25.1988 15.833 25.6481 16.0184 25.9793 16.3483C26.3106 16.6782 26.4967 17.1257 26.4967 17.5922V21.1107C26.4967 21.5772 26.3106 22.0247 25.9793 22.3546C25.6481 22.6845 25.1988 22.8699 24.7303 22.8699Z" fill="#12B7B6"/>
<path d="M31.7957 22.8699C31.3272 22.8699 30.8779 22.6845 30.5467 22.3546C30.2154 22.0247 30.0293 21.5772 30.0293 21.1107V17.5922C30.0293 17.1257 30.2154 16.6782 30.5467 16.3483C30.8779 16.0184 31.3272 15.833 31.7957 15.833C32.2642 15.833 32.7135 16.0184 33.0448 16.3483C33.376 16.6782 33.5622 17.1257 33.5622 17.5922V21.1107C33.5622 21.5772 33.376 22.0247 33.0448 22.3546C32.7135 22.6845 32.2642 22.8699 31.7957 22.8699Z" fill="#12B7B6"/>
<path d="M28.2625 29.9065C27.794 29.9065 27.3447 29.7212 27.0135 29.3912C26.6822 29.0613 26.4961 28.6139 26.4961 28.1473V24.6288C26.4961 24.1623 26.6822 23.7148 27.0135 23.3849C27.3447 23.055 27.794 22.8696 28.2625 22.8696C28.731 22.8696 29.1803 23.055 29.5116 23.3849C29.8428 23.7148 30.0289 24.1623 30.0289 24.6288V28.1473C30.0289 28.6139 29.8428 29.0613 29.5116 29.3912C29.1803 29.7212 28.731 29.9065 28.2625 29.9065Z" fill="#12B7B6"/>
<path d="M21.1981 29.9065C20.7296 29.9065 20.2803 29.7212 19.949 29.3912C19.6177 29.0613 19.4316 28.6139 19.4316 28.1473V24.6288C19.4316 24.1623 19.6177 23.7148 19.949 23.3849C20.2803 23.055 20.7296 22.8696 21.1981 22.8696C21.6666 22.8696 22.1159 23.055 22.4471 23.3849C22.7784 23.7148 22.9645 24.1623 22.9645 24.6288V28.1473C22.9645 28.6139 22.7784 29.0613 22.4471 29.3912C22.1159 29.7212 21.6666 29.9065 21.1981 29.9065Z" fill="#12B7B6"/>
<path d="M35.3279 29.9065C34.8595 29.9065 34.4102 29.7212 34.0789 29.3912C33.7476 29.0613 33.5615 28.6139 33.5615 28.1473V24.6288C33.5615 24.1623 33.7476 23.7148 34.0789 23.3849C34.4102 23.055 34.8595 22.8696 35.3279 22.8696C35.7964 22.8696 36.2457 23.055 36.577 23.3849C36.9083 23.7148 37.0944 24.1623 37.0944 24.6288V28.1473C37.0944 28.6139 36.9083 29.0613 36.577 29.3912C36.2457 29.7212 35.7964 29.9065 35.3279 29.9065Z" fill="#12B7B6"/>
</svg>
