<svg width="37" height="32" viewBox="0 0 37 32" fill="none" xmlns="http://www.w3.org/2000/svg">
<path d="M28.0264 15.2642H35.5337V16.7656C35.5337 16.7656 33.2815 17.3887 33.2815 19.0178V22.0208C33.2815 23.6136 32.6488 25.1412 31.5224 26.2675C30.3961 27.3939 28.8685 28.0266 27.2757 28.0266H9.25806C7.66521 28.0266 6.13759 27.3939 5.01127 26.2675C3.88495 25.1412 3.2522 23.6136 3.2522 22.0208V19.0178C3.2522 17.3887 1 16.7656 1 16.7656V15.2642H20.5191" stroke="#BABABA" stroke-width="2" stroke-miterlimit="10"/>
<path d="M28.0273 28.0261L28.7781 30.2783V31.0291" stroke="#BABABA" stroke-width="2" stroke-miterlimit="10"/>
<path d="M8.50659 28.0261L7.75586 30.2783V31.0291" stroke="#BABABA" stroke-width="2" stroke-miterlimit="10"/>
<path d="M10.7598 5.50415H12.2612H13.7627" stroke="#BABABA" stroke-width="2" stroke-miterlimit="10"/>
<path d="M12.2615 5.5044V4.00293C12.2615 3.20651 11.9451 2.4427 11.3819 1.87954C10.8188 1.31638 10.055 1 9.25855 1H8.50782C7.71139 1 6.94758 1.31638 6.38442 1.87954C5.82126 2.4427 5.50488 3.20651 5.50488 4.00293V15.2639" stroke="#BABABA" stroke-width="2" stroke-miterlimit="10"/>
<path d="M21.2703 13.7625H27.2761C27.4752 13.7625 27.6662 13.8415 27.807 13.9823C27.9478 14.1231 28.0269 14.3141 28.0269 14.5132V21.2698H20.5195V14.5132C20.5195 14.3141 20.5986 14.1231 20.7394 13.9823C20.8802 13.8415 21.0712 13.7625 21.2703 13.7625Z" stroke="#BABABA" stroke-width="2" stroke-miterlimit="10"/>
<path d="M10.7598 7.75684V9.2583" stroke="#BABABA" stroke-width="2" stroke-miterlimit="10"/>
<path d="M13.7617 7.75684V9.2583" stroke="#BABABA" stroke-width="2" stroke-miterlimit="10"/>
<path d="M12.2607 10.7595V12.261" stroke="#BABABA" stroke-width="2" stroke-miterlimit="10"/>
<path d="M9.25879 10.7595V12.261" stroke="#BABABA" stroke-width="2" stroke-miterlimit="10"/>
<path d="M15.2637 10.7595V12.261" stroke="#BABABA" stroke-width="2" stroke-miterlimit="10"/>
</svg>
