<svg width="43" height="28" viewBox="0 0 43 28" fill="none" xmlns="http://www.w3.org/2000/svg">
<path d="M37.6947 7.93132H30.7051V7.05762L32.4525 1.81543H35.9473L37.6947 7.05762V7.93132Z" stroke="#BABABA" stroke-width="2" stroke-miterlimit="10"/>
<path d="M34.2002 7.93115V12.2996" stroke="#BABABA" stroke-width="2" stroke-miterlimit="10"/>
<path d="M41.1895 12.2998H30.7051V18.4157H41.1895V12.2998Z" stroke="#BABABA" stroke-width="2" stroke-miterlimit="10"/>
<path d="M41.1895 18.4155H30.7051V24.5314H41.1895V18.4155Z" stroke="#BABABA" stroke-width="2" stroke-miterlimit="10"/>
<path d="M31.5791 24.5317V27.1528" stroke="#BABABA" stroke-width="2" stroke-miterlimit="10"/>
<path d="M25.4629 24.5317V27.1528" stroke="#BABABA" stroke-width="2" stroke-miterlimit="10"/>
<path d="M2.74707 24.5317V27.1528" stroke="#BABABA" stroke-width="2" stroke-miterlimit="10"/>
<path d="M40.3164 24.5317V27.1528" stroke="#BABABA" stroke-width="2" stroke-miterlimit="10"/>
<path d="M1.87402 11.4261V2.68913C1.87402 2.45741 1.96607 2.23518 2.12992 2.07133C2.29377 1.90748 2.516 1.81543 2.74772 1.81543H25.4639C25.6956 1.81543 25.9178 1.90748 26.0817 2.07133C26.2455 2.23518 26.3376 2.45741 26.3376 2.68913V11.4261" stroke="#BABABA" stroke-width="2" stroke-miterlimit="10"/>
<path d="M3.62109 13.1736H24.5898C25.285 13.1736 25.9517 13.4497 26.4432 13.9413C26.9348 14.4328 27.2109 15.0995 27.2109 15.7947V24.5317H1V15.7947C1 15.0995 1.27615 14.4328 1.7677 13.9413C2.25925 13.4497 2.92594 13.1736 3.62109 13.1736V13.1736Z" stroke="#BABABA" stroke-width="2" stroke-miterlimit="10"/>
<path d="M5.36719 11.4259V9.67855C5.36719 9.21511 5.55129 8.77065 5.87899 8.44295C6.20669 8.11525 6.65115 7.93115 7.11458 7.93115H10.6094C11.0728 7.93115 11.5173 8.11525 11.845 8.44295C12.1727 8.77065 12.3568 9.21511 12.3568 9.67855V11.4259" stroke="#BABABA" stroke-width="2" stroke-miterlimit="10"/>
<path d="M15.8535 11.4259V9.67855C15.8535 9.21511 16.0376 8.77065 16.3653 8.44295C16.693 8.11525 17.1375 7.93115 17.6009 7.93115H21.0957C21.5591 7.93115 22.0036 8.11525 22.3313 8.44295C22.659 8.77065 22.8431 9.21511 22.8431 9.67855V11.4259" stroke="#BABABA" stroke-width="2" stroke-miterlimit="10"/>
</svg>
