<svg width="111" height="71" viewBox="0 0 111 71" fill="none" xmlns="http://www.w3.org/2000/svg">
<path d="M98.8053 20.0094H80.3562C79.8323 20.0094 79.3299 19.8021 78.9594 19.4332C78.589 19.0643 78.3809 18.5639 78.3809 18.0421V15.7404C78.3735 15.5327 78.4071 15.3255 78.4796 15.1306L83.0821 1.35975C83.2112 0.965339 83.4622 0.621685 83.7992 0.377893C84.1362 0.1341 84.542 0.00265779 84.9585 0.00235219H94.1831C94.6163 -0.0187601 95.0445 0.102713 95.4015 0.34804C95.7585 0.593366 96.0245 0.948895 96.1584 1.35975L100.781 15.1306C100.844 15.3279 100.877 15.5334 100.879 15.7404V18.0421C100.88 18.309 100.825 18.5731 100.72 18.8184C100.615 19.0637 100.46 19.2851 100.266 19.4692C100.072 19.6532 99.8428 19.796 99.5916 19.8889C99.3404 19.9817 99.0729 20.0227 98.8053 20.0094ZM82.3314 16.0749H96.83L92.7609 3.93687H86.3807L82.3314 16.0749Z" fill="#12B7B6"/>
<path d="M89.5807 31.4789C89.0569 31.4789 88.5544 31.2716 88.184 30.9027C87.8135 30.5337 87.6055 30.0333 87.6055 29.5116V18.0425C87.6055 17.5207 87.8135 17.0203 88.184 16.6514C88.5544 16.2825 89.0569 16.0752 89.5807 16.0752C90.1046 16.0752 90.607 16.2825 90.9775 16.6514C91.3479 17.0203 91.556 17.5207 91.556 18.0425V29.5313C91.5508 30.0496 91.3404 30.5449 90.9705 30.9096C90.6006 31.2743 90.1012 31.4789 89.5807 31.4789Z" fill="#12B7B6"/>
<path d="M108.032 47.5506H80.3776C79.8537 47.5506 79.3513 47.3434 78.9809 46.9744C78.6104 46.6055 78.4023 46.1051 78.4023 45.5834V29.4912C78.4023 28.9694 78.6104 28.4691 78.9809 28.1001C79.3513 27.7312 79.8537 27.5239 80.3776 27.5239H108.032C108.555 27.5239 109.058 27.7312 109.428 28.1001C109.799 28.4691 110.007 28.9694 110.007 29.4912V45.5834C110.007 46.1051 109.799 46.6055 109.428 46.9744C109.058 47.3434 108.555 47.5506 108.032 47.5506ZM82.3529 43.6161H106.056V31.4584H82.3529V43.6161Z" fill="#12B7B6"/>
<path d="M108.032 63.6429H80.3776C79.8537 63.6429 79.3513 63.4357 78.9809 63.0667C78.6104 62.6978 78.4023 62.1974 78.4023 61.6757V45.5835C78.4023 45.0617 78.6104 44.5613 78.9809 44.1924C79.3513 43.8235 79.8537 43.6162 80.3776 43.6162H108.032C108.555 43.6162 109.058 43.8235 109.428 44.1924C109.799 44.5613 110.007 45.0617 110.007 45.5835V61.656C110.009 61.916 109.96 62.1739 109.862 62.4149C109.764 62.6558 109.619 62.875 109.435 63.0598C109.252 63.2446 109.033 63.3912 108.792 63.4913C108.551 63.5914 108.293 63.6429 108.032 63.6429ZM82.3529 59.7084H106.056V47.5507H82.3529V59.7084Z" fill="#12B7B6"/>
<path d="M82.6491 70.5481C82.1252 70.5481 81.6228 70.3408 81.2523 69.9719C80.8819 69.603 80.6738 69.1026 80.6738 68.5809V61.6758C80.6738 61.154 80.8819 60.6536 81.2523 60.2847C81.6228 59.9158 82.1252 59.7085 82.6491 59.7085C83.173 59.7085 83.6754 59.9158 84.0458 60.2847C84.4163 60.6536 84.6244 61.154 84.6244 61.6758V68.5809C84.6244 69.1026 84.4163 69.603 84.0458 69.9719C83.6754 70.3408 83.173 70.5481 82.6491 70.5481Z" fill="#12B7B6"/>
<path d="M66.5095 70.5481C65.9856 70.5481 65.4832 70.3408 65.1128 69.9719C64.7423 69.603 64.5342 69.1026 64.5342 68.5809V61.6758C64.5342 61.154 64.7423 60.6536 65.1128 60.2847C65.4832 59.9158 65.9856 59.7085 66.5095 59.7085C67.0333 59.7085 67.5358 59.9158 67.9062 60.2847C68.2767 60.6536 68.4848 61.154 68.4848 61.6758V68.5809C68.4848 69.1026 68.2767 69.603 67.9062 69.9719C67.5358 70.3408 67.0333 70.5481 66.5095 70.5481Z" fill="#12B7B6"/>
<path d="M6.52216 70.5481C5.99828 70.5481 5.49589 70.3408 5.12545 69.9719C4.75501 69.603 4.54688 69.1026 4.54688 68.5809V61.6758C4.54688 61.154 4.75501 60.6536 5.12545 60.2847C5.49589 59.9158 5.99828 59.7085 6.52216 59.7085C7.04603 59.7085 7.54849 59.9158 7.91892 60.2847C8.28936 60.6536 8.49744 61.154 8.49744 61.6758V68.5809C8.49744 69.1026 8.28936 69.603 7.91892 69.9719C7.54849 70.3408 7.04603 70.5481 6.52216 70.5481Z" fill="#12B7B6"/>
<path d="M105.717 70.5481C105.194 70.5481 104.691 70.3408 104.321 69.9719C103.95 69.603 103.742 69.1026 103.742 68.5809V61.6758C103.742 61.154 103.95 60.6536 104.321 60.2847C104.691 59.9158 105.194 59.7085 105.717 59.7085C106.241 59.7085 106.744 59.9158 107.114 60.2847C107.485 60.6536 107.693 61.154 107.693 61.6758V68.5809C107.693 69.1026 107.485 69.603 107.114 69.9719C106.744 70.3408 106.241 70.5481 105.717 70.5481Z" fill="#12B7B6"/>
<path d="M68.8211 29.1769C68.2972 29.1769 67.7948 28.9697 67.4243 28.6007C67.0539 28.2318 66.8458 27.7314 66.8458 27.2097V4.27139C66.8411 4.18423 66.8042 4.10188 66.7422 4.04015C66.6802 3.97843 66.5975 3.94169 66.51 3.93696H6.5207C6.43164 3.93696 6.34623 3.97219 6.28326 4.03491C6.22028 4.09763 6.18494 4.1827 6.18494 4.27139V27.249C6.18494 27.7708 5.9768 28.2711 5.60636 28.6401C5.23593 29.009 4.73353 29.2163 4.20966 29.2163C3.68578 29.2163 3.18333 29.009 2.81289 28.6401C2.44245 28.2711 2.23438 27.7708 2.23438 27.249V4.27139C2.23438 3.1392 2.68593 2.05337 3.48978 1.25278C4.29363 0.452197 5.38389 0.00244141 6.5207 0.00244141H66.51C67.6452 0.00761587 68.7324 0.459035 69.5352 1.2585C70.3379 2.05797 70.7912 3.14079 70.7964 4.27139V27.249C70.786 27.7639 70.5734 28.2542 70.204 28.6147C69.8347 28.9752 69.3382 29.177 68.8211 29.1769Z" fill="#12B7B6"/>
<path d="M71.1101 63.6432H1.97528C1.4514 63.6432 0.948952 63.436 0.578515 63.067C0.208078 62.6981 0 62.1977 0 61.676V37.7147C0 35.6277 0.832431 33.6262 2.31418 32.1505C3.79593 30.6748 5.80562 29.8457 7.90112 29.8457H65.1843C67.2798 29.8457 69.2895 30.6748 70.7712 32.1505C72.253 33.6262 73.0854 35.6277 73.0854 37.7147V61.676C73.0854 62.1977 72.8773 62.6981 72.5068 63.067C72.1364 63.436 71.634 63.6432 71.1101 63.6432ZM3.95056 59.7087H69.1348V37.7147C69.1348 36.6712 68.7186 35.6705 67.9777 34.9326C67.2369 34.1948 66.232 33.7802 65.1843 33.7802H7.90112C6.85337 33.7802 5.84853 34.1948 5.10765 34.9326C4.36678 35.6705 3.95056 36.6712 3.95056 37.7147V59.7087Z" fill="#12B7B6"/>
<path d="M31.9022 29.1768C31.3783 29.1768 30.8759 28.9695 30.5055 28.6006C30.135 28.2317 29.9269 27.7313 29.9269 27.2096V22.6258C29.9269 21.9267 29.648 21.2562 29.1516 20.7618C28.6552 20.2674 27.982 19.9897 27.28 19.9897H18.0554C17.3534 19.9897 16.6802 20.2674 16.1838 20.7618C15.6875 21.2562 15.4086 21.9267 15.4086 22.6258V27.2096C15.4086 27.7313 15.2005 28.2317 14.8301 28.6006C14.4596 28.9695 13.9572 29.1768 13.4333 29.1768C12.9094 29.1768 12.407 28.9695 12.0366 28.6006C11.6661 28.2317 11.458 27.7313 11.458 27.2096V22.6258C11.4632 20.8848 12.16 19.2165 13.3961 17.9854C14.6322 16.7543 16.3073 16.0604 18.0554 16.0552H27.28C29.0282 16.0604 30.7032 16.7543 31.9394 17.9854C33.1755 19.2165 33.8722 20.8848 33.8775 22.6258V27.2096C33.8775 27.7313 33.6693 28.2317 33.2989 28.6006C32.9284 28.9695 32.4261 29.1768 31.9022 29.1768Z" fill="#12B7B6"/>
<path d="M59.5758 29.1768C59.0519 29.1768 58.5494 28.9695 58.179 28.6006C57.8086 28.2317 57.6005 27.7313 57.6005 27.2096V22.6258C57.6005 21.9301 57.3243 21.2625 56.8322 20.7687C56.3401 20.2749 55.6719 19.9949 54.9733 19.9897H45.729C45.0305 19.9949 44.3623 20.2749 43.8701 20.7687C43.378 21.2625 43.1019 21.9301 43.1019 22.6258V27.2096C43.1019 27.7313 42.8938 28.2317 42.5234 28.6006C42.1529 28.9695 41.6505 29.1768 41.1266 29.1768C40.6028 29.1768 40.1003 28.9695 39.7299 28.6006C39.3594 28.2317 39.1514 27.7313 39.1514 27.2096V22.6258C39.1514 20.8866 39.8437 19.2183 41.0767 17.9866C42.3097 16.755 43.9827 16.0604 45.729 16.0552H54.9733C56.7197 16.0604 58.3927 16.755 59.6257 17.9866C60.8587 19.2183 61.5511 20.8866 61.5511 22.6258V27.2096C61.5511 27.7313 61.3429 28.2317 60.9725 28.6006C60.602 28.9695 60.0996 29.1768 59.5758 29.1768Z" fill="#12B7B6"/>
</svg>
