<svg width="81" height="41" viewBox="0 0 81 41" fill="none" xmlns="http://www.w3.org/2000/svg">
<path d="M73.323 0H8.06964C5.96419 0.00294821 3.94305 0.827602 2.4365 2.29839C0.929953 3.76918 0.0570032 5.76992 0.00348469 7.87468H0V33.027C0.00138212 33.9147 0.354724 34.7655 0.982535 35.393C1.61035 36.0205 2.46138 36.3734 3.349 36.3743H14.1671C14.8129 37.7518 15.8378 38.9168 17.1217 39.7329C18.4057 40.549 19.8956 40.9824 21.4169 40.9824C22.9383 40.9824 24.4282 40.549 25.7121 39.7329C26.9961 38.9168 28.0209 37.7518 28.6667 36.3743H55.2655C55.9111 37.7523 56.936 38.9177 58.2202 39.7342C59.5043 40.5507 60.9945 40.9843 62.5162 40.9843C64.0379 40.9843 65.5281 40.5507 66.8123 39.7342C68.0964 38.9177 69.1213 37.7523 69.7669 36.3743H77.1577C78.045 36.3729 78.8956 36.0198 79.523 35.3924C80.1504 34.7649 80.5035 33.9144 80.5049 33.027V8.07486C80.498 3.32116 77.5476 0 73.323 0ZM8.06964 2.64229H73.323C76.0019 2.64229 77.2952 4.51872 77.7042 6.55354H2.85641C3.18648 5.42607 3.87268 4.43575 4.8124 3.73073C5.75213 3.0257 6.89484 2.64384 8.06964 2.64229ZM53.9113 9.20106V17.034H45.6868V9.20106H53.9113ZM43.0445 9.20106V17.034H34.8129V9.20106H43.0445ZM32.1793 9.20106V17.034H23.9548V9.20106H32.1793ZM21.3125 9.20106V17.034H13.0879V9.20106H21.3125ZM21.41 38.3551C20.346 38.3555 19.3059 38.0403 18.4211 37.4494C17.5363 36.8586 16.8467 36.0185 16.4394 35.0357C16.0321 34.0528 15.9254 32.9712 16.1329 31.9277C16.3404 30.8842 16.8527 29.9256 17.605 29.1733C18.3573 28.421 19.3158 27.9087 20.3593 27.7012C21.4028 27.4937 22.4844 27.6004 23.4673 28.0077C24.4502 28.415 25.2902 29.1047 25.8811 29.9894C26.4719 30.8742 26.7872 31.9144 26.7868 32.9783C26.7836 34.4027 26.2159 35.7677 25.208 36.7743C24.2001 37.7808 22.8344 38.3468 21.41 38.3482V38.3551ZM62.5084 38.3551C61.4445 38.3551 60.4045 38.0397 59.52 37.4486C58.6355 36.8575 57.9461 36.0174 57.539 35.0344C57.132 34.0515 57.0256 32.97 57.2332 31.9266C57.4409 30.8832 57.9534 29.9248 58.7057 29.1727C59.4581 28.4205 60.4167 27.9084 61.4601 27.7011C62.5036 27.4937 63.5851 27.6005 64.5679 28.0079C65.5507 28.4152 66.3906 29.1049 66.9814 29.9896C67.5722 30.8744 67.8873 31.9144 67.887 32.9783C67.8833 34.4028 67.3152 35.7679 66.307 36.7744C65.2989 37.7809 63.9329 38.3468 62.5084 38.3482V38.3551ZM77.8557 33.034C77.8557 33.2187 77.7823 33.3957 77.6517 33.5263C77.5211 33.6569 77.3441 33.7303 77.1594 33.7303H70.4962C70.5206 33.4796 70.5345 33.2255 70.5345 32.9696C70.5345 30.8428 69.6896 28.8031 68.1857 27.2992C66.6819 25.7953 64.6422 24.9504 62.5153 24.9504C60.3885 24.9504 58.3488 25.7953 56.8449 27.2992C55.341 28.8031 54.4962 30.8428 54.4962 32.9696C54.4962 33.2255 54.5118 33.4796 54.5345 33.7303H29.3908C29.4134 33.4796 29.4291 33.2255 29.4291 32.9696C29.4291 30.8428 28.5842 28.8031 27.0804 27.2992C25.5765 25.7953 23.5368 24.9504 21.41 24.9504C19.2831 24.9504 17.2434 25.7953 15.7396 27.2992C14.2357 28.8031 13.3908 30.8428 13.3908 32.9696C13.3908 33.2255 13.4065 33.4796 13.4291 33.7303H3.33334C3.14757 33.7307 2.96913 33.6578 2.8368 33.5275C2.70446 33.3971 2.62892 33.2198 2.62663 33.034V9.20106H10.4439V17.034H6.61446V19.6745H60.4004V17.034H56.5536V9.20106H64.7782V19.6084L65.1489 19.9931C67.0915 22 74.7556 24.2542 77.8557 25.1053V33.034ZM77.8557 22.3621C73.9235 21.2481 69.0602 19.6014 67.4118 18.4613V9.20106H77.8557V22.3621Z" fill="#12B7B6"/>
</svg>
