<svg width="88" height="43" viewBox="0 0 88 43" fill="none" xmlns="http://www.w3.org/2000/svg">
<path d="M78.6747 16.042C75.405 15.2255 68.3367 13.9637 66.4678 13.6345C64.3344 11.541 52.8451 0.755859 42.6784 0.755859C40.9351 0.755859 37.8692 0.877661 34.9021 0.993753C32.1178 1.10223 29.4877 1.205 28.1079 1.205C19.4961 1.205 13.859 7.98215 11.1489 11.2403C10.7873 11.6743 10.3876 12.1538 10.1383 12.4165C8.08863 12.445 3.38214 12.6296 3.16708 12.6392L2.29163 12.6734L1.911 13.467C0.63572 16.4993 -0.0141858 19.7579 0.000234824 23.0475C0.000234824 28.3535 0.000235222 36.3696 7.19415 36.3696H11.2288C11.5779 38.2571 12.5858 39.9595 14.0728 41.1734C15.5598 42.3873 17.4295 43.0339 19.3488 42.998C21.268 42.9621 23.1122 42.2461 24.5528 40.9775C25.9935 39.7089 26.937 37.9701 27.2153 36.0708V36.3696H57.4107C57.7597 38.234 58.7515 39.917 60.2135 41.1256C61.6754 42.3341 63.5149 42.9917 65.4118 42.9838C67.3086 42.9758 69.1425 42.303 70.5943 41.0822C72.0461 39.8615 73.0239 38.1702 73.3572 36.3029C74.7846 36.2382 77.3367 36.145 80.3418 36.145C85.6973 36.145 86.1255 33.7432 86.7726 30.1082C86.9248 29.2537 87.098 28.2869 87.3435 27.1792L87.3797 27.0194V26.8557C87.3892 21.6982 82.8844 17.0944 78.6747 16.042ZM19.203 40.0978C18.1693 40.0982 17.1588 39.792 16.2991 39.218C15.4394 38.644 14.7693 37.8279 14.3734 36.873C13.9776 35.9181 13.8738 34.8673 14.0753 33.8534C14.2767 32.8395 14.7743 31.9081 15.5051 31.1771C16.2359 30.446 17.1671 29.9481 18.1809 29.7463C19.1947 29.5445 20.2456 29.6479 21.2006 30.0434C22.1557 30.4389 22.972 31.1087 23.5463 31.9681C24.1206 32.8276 24.4272 33.8381 24.4272 34.8718C24.4257 36.257 23.8749 37.5851 22.8955 38.5648C21.9162 39.5445 20.5883 40.0958 19.203 40.0978ZM65.3792 40.0978C64.3457 40.0975 63.3355 39.7906 62.4763 39.2161C61.6171 38.6417 60.9476 37.8254 60.5523 36.8704C60.1571 35.9154 60.0539 34.8647 60.2557 33.8511C60.4576 32.8374 60.9555 31.9064 61.6864 31.1757C62.4174 30.445 63.3486 29.9475 64.3623 29.746C65.376 29.5445 66.4267 29.6481 67.3815 30.0437C68.3363 30.4393 69.1524 31.1092 69.7266 31.9685C70.3007 32.8279 70.6072 33.8382 70.6072 34.8718C70.6062 36.2578 70.055 37.5868 69.0747 38.5667C68.0945 39.5466 66.7653 40.0973 65.3792 40.0978ZM83.9293 29.6058C83.3145 33.0543 83.2784 33.2598 80.3418 33.2598C77.3463 33.2598 74.8227 33.3492 73.3534 33.4159C73.014 31.5417 72.0252 29.847 70.5606 28.6292C69.0961 27.4115 67.2494 26.7485 65.3448 26.7567C63.4401 26.7649 61.5992 27.4437 60.1452 28.674C58.6912 29.9042 57.717 31.6074 57.3936 33.4844H27.2153V33.6747C26.9329 31.7692 25.9808 30.0266 24.5298 28.7595C23.0787 27.4925 21.2237 26.784 19.2975 26.7611C17.3713 26.7382 15.4999 27.4024 14.0191 28.6345C12.5383 29.8666 11.545 31.5861 11.2174 33.4844H7.18654C3.19943 33.4844 2.88161 28.9606 2.88161 23.0475C2.89063 20.4707 3.34123 17.9146 4.21381 15.4901C5.88669 15.4254 9.339 15.2998 10.5741 15.2998C11.5257 15.2998 12.0967 14.6051 13.368 13.0845C15.7964 10.1651 20.8493 4.09209 28.106 4.09209C29.5429 4.09209 32.1997 3.98742 35.0144 3.87703C37.951 3.76284 40.9884 3.64295 42.6765 3.64295C49.6364 3.64295 57.7685 9.80345 61.944 13.4194H42.8326V8.25238H39.9436V13.4194H30.0187C24.5109 13.4194 23.5689 9.54272 23.4813 9.11261L20.6399 9.63407C21.0643 11.9426 23.5689 16.3084 30.0187 16.3084H65.0576V16.3198L65.5144 16.3998C65.6019 16.415 74.3602 17.9432 77.9648 18.8434C81.0098 19.6047 84.3955 23.1046 84.4907 26.7035C84.249 27.8092 84.0796 28.7608 83.9293 29.6058Z" fill="#BABABA"/>
</svg>
