<svg width="86" height="55" viewBox="0 0 86 55" fill="none" xmlns="http://www.w3.org/2000/svg">
<path d="M84.4871 32.1632C83.0047 28.3733 80.1671 25.2695 76.525 23.4543C72.8828 21.639 68.6961 21.2419 64.7777 22.34L58.2354 5.72477H69.2181C69.8452 5.72477 70.4467 5.97389 70.8901 6.41734C71.3336 6.86079 71.5827 7.46223 71.5827 8.08936C71.5827 8.71649 71.3336 9.31795 70.8901 9.7614C70.4467 10.2049 69.8452 10.454 69.2181 10.454C68.781 10.454 68.3618 10.6276 68.0527 10.9367C67.7437 11.2458 67.57 11.6649 67.57 12.102C67.57 12.5391 67.7437 12.9583 68.0527 13.2674C68.3618 13.5765 68.781 13.7501 69.2181 13.7501C70.7194 13.7501 72.1592 13.1537 73.2208 12.0921C74.2824 11.0305 74.8788 9.59068 74.8788 8.08936C74.8788 6.58804 74.2824 5.14822 73.2208 4.08663C72.1592 3.02504 70.7194 2.42865 69.2181 2.42865H55.8165C55.548 2.42874 55.2835 2.49444 55.0462 2.62002C54.8089 2.74561 54.6058 2.92727 54.4547 3.14922C54.3036 3.37118 54.209 3.6267 54.1792 3.89355C54.1493 4.16039 54.1852 4.43049 54.2835 4.68034L57.1367 11.9262H31.3301L26.7073 4.10928H33.2887V0.806641H18.5777V4.10276H22.8792L28.49 13.6003L14.9342 37.2963C14.7908 37.5469 14.7157 37.8309 14.7165 38.1197C14.7174 38.4085 14.7941 38.692 14.939 38.9418C15.0839 39.1917 15.292 39.399 15.5423 39.5431C15.7926 39.6872 16.0763 39.763 16.3651 39.7629H29.3563C29.0416 42.2641 28.0116 44.6213 26.3901 46.5514C24.7685 48.4816 22.6243 49.9027 20.2149 50.6441C17.8056 51.3856 15.2334 51.4158 12.8072 50.7312C10.381 50.0467 8.20402 48.6764 6.53754 46.7849C4.87105 44.8934 3.78593 42.5611 3.41245 40.068C3.03897 37.575 3.39301 35.0271 4.43206 32.7303C5.47112 30.4335 7.15101 28.4854 9.27007 27.1199C11.3891 25.7544 13.8573 25.0296 16.3782 25.0325H16.4455L16.4628 21.7363H16.3782C13.2086 21.7368 10.1073 22.6568 7.45027 24.3848C4.79321 26.1127 2.69451 28.5744 1.40864 31.4714C0.122772 34.3684 -0.295039 37.5762 0.205868 40.7058C0.706775 43.8355 2.10488 46.7527 4.23068 49.1036C6.35647 51.4545 9.11865 53.1382 12.1823 53.9506C15.2459 54.7629 18.4795 54.6691 21.4908 53.6803C24.5021 52.6915 27.162 50.8504 29.1478 48.3801C31.1336 45.9098 32.3601 42.9164 32.6785 39.7629H44.3517V38.1149H44.3713L44.3908 39.7738C44.6793 39.7736 44.9627 39.6977 45.2127 39.5537C45.4626 39.4096 45.6704 39.2025 45.8152 38.953L58.8998 16.4078L67.6851 38.712L70.7511 37.5047L65.9958 25.4276C69.0069 24.6668 72.1906 25.0024 74.9769 26.3744C77.7632 27.7464 79.9703 30.0652 81.2032 32.9158C82.436 35.7663 82.6142 38.9627 81.7057 41.9326C80.7973 44.9025 78.8615 47.4523 76.2449 49.1254C73.6283 50.7985 70.5017 51.4858 67.4247 51.0643C64.3476 50.6428 61.521 49.1399 59.4508 46.8248C57.3805 44.5096 56.2018 41.5333 56.1255 38.4284C56.0492 35.3236 57.0804 32.2929 59.0344 29.8789L56.4701 27.8118C54.6607 30.0619 53.4759 32.7489 53.0349 35.6024C52.5939 38.4559 52.9122 41.3752 53.9578 44.0665C54.6995 46.1251 55.8459 48.0142 57.3294 49.6226C58.8128 51.231 60.6034 52.5261 62.5953 53.4315C64.5873 54.3368 66.7404 54.8342 68.9276 54.8941C71.1148 54.9541 73.2919 54.5755 75.3305 53.7807C77.3691 52.9858 79.2279 51.7908 80.7973 50.2661C82.3667 48.7415 83.6149 46.918 84.4683 44.9032C85.3217 42.8884 85.763 40.7231 85.7662 38.5351C85.7694 36.347 85.3345 34.1805 84.4871 32.1632ZM19.2161 36.4668L24.2515 27.6663C25.6552 28.7095 26.8315 30.0279 27.7084 31.5411C28.5854 33.0542 29.1446 34.7302 29.352 36.4668H19.2161ZM32.6785 36.4668C32.4433 34.1495 31.7171 31.9089 30.5482 29.8942C29.3793 27.8795 27.7946 26.137 25.8995 24.7827L30.3639 16.9659L41.5159 36.4581L32.6785 36.4668ZM44.3865 34.847L33.1584 15.2223H55.7687L44.3865 34.847Z" fill="#BABABA"/>
</svg>
