<svg width="147" height="149" viewBox="0 0 147 149" fill="none" xmlns="http://www.w3.org/2000/svg">
<path d="M67.2473 24.4937H21.7456V83.6166H67.2473V24.4937Z" fill="#D3F3F2"/>
<path d="M52.0488 72.4436H77.7279H99.8977L83.4669 42.4191L99.8977 12.3945H77.7279H52.0488V72.4436Z" fill="white"/>
<path d="M2.18116 10.273C2.18116 8.69159 2.65064 7.1457 3.53015 5.83083C4.40966 4.51596 5.65975 3.49114 7.12232 2.88597C8.58489 2.2808 10.1942 2.12247 11.7469 2.43098C13.2995 2.73949 14.7258 3.501 15.8452 4.61921C16.9646 5.73741 17.7269 7.16208 18.0357 8.71308C18.3446 10.2641 18.1861 11.8717 17.5803 13.3328C16.9745 14.7938 15.9485 16.0425 14.6322 16.9211C13.316 17.7996 11.7684 18.2686 10.1853 18.2686C9.13378 18.2701 8.09227 18.0644 7.12046 17.6631C6.14865 17.2618 5.26569 16.6729 4.52212 15.9302C3.77856 15.1874 3.18902 14.3053 2.78732 13.3346C2.38562 12.3638 2.17962 11.3234 2.18116 10.273Z" fill="#26C5BF"/>
<path d="M13.73 24.4937V149V24.4937V149H6.62939V24.4937H13.73Z" fill="#D3F3F2"/>
<path d="M15.4901 24.4937H11.9692V149H15.4901V24.4937Z" fill="#283133"/>
<path d="M15.4906 149H11.9697V26.252H8.39007V149H4.86914V22.7349H15.4906V149Z" fill="#323232"/>
<path d="M69.008 85.3632H19.9854V22.7349H52.049V26.252H23.5062V81.8461H65.4871V72.4436H69.008V85.3632Z" fill="#323232"/>
<path d="M102.867 74.1908H50.2886V10.6245H102.867L85.4741 42.4077L102.867 74.1908ZM53.8095 70.6736H96.9287L81.4603 42.4077L96.9287 14.1416H53.8095V70.6736Z" fill="#323232"/>
<path d="M105.157 81.6001H86.0615V85.1172H105.157V81.6001Z" fill="#323232"/>
<path d="M114.369 81.6001H110.425V85.1172H114.369V81.6001Z" fill="#323232"/>
<path d="M137.266 34.4822H118.171V37.9993H137.266V34.4822Z" fill="#323232"/>
<path d="M146.478 34.4822H142.535V37.9993H146.478V34.4822Z" fill="#323232"/>
<path d="M132.338 52.2905H101.553V55.8077H132.338V52.2905Z" fill="#323232"/>
<path d="M15.4901 24.4937H11.9692V149H15.4901V24.4937Z" fill="#323232"/>
<path d="M10.209 20.0269C8.27775 20.0269 6.38989 19.4548 4.7841 18.383C3.17831 17.3112 1.92669 15.7878 1.18762 14.0055C0.448562 12.2231 0.255196 10.2619 0.631967 8.36976C1.00874 6.47763 1.93877 4.7396 3.30438 3.37546C4.66999 2.01131 6.40985 1.08235 8.304 0.705985C10.1982 0.329618 12.1615 0.522776 13.9457 1.26105C15.73 1.99932 17.2551 3.24953 18.328 4.8536C19.401 6.45766 19.9737 8.34353 19.9737 10.2727C19.9737 11.5537 19.7211 12.8221 19.2304 14.0055C18.7397 15.1889 18.0204 16.2642 17.1136 17.17C16.2069 18.0757 15.1304 18.7942 13.9457 19.2844C12.761 19.7746 11.4913 20.0269 10.209 20.0269ZM10.209 4.04741C8.97362 4.04741 7.766 4.4135 6.73897 5.09936C5.71194 5.78521 4.91163 6.76 4.4394 7.90035C3.96718 9.0407 3.84424 10.2953 4.08611 11.5055C4.32798 12.7157 4.92383 13.827 5.79821 14.6988C6.67259 15.5706 7.78619 16.1637 8.99813 16.4031C10.2101 16.6424 11.4658 16.5172 12.6065 16.0433C13.7472 15.5695 14.7215 14.7682 15.4062 13.741C16.0909 12.7138 16.4551 11.5068 16.4528 10.2727C16.4496 8.62059 15.7905 7.03719 14.6199 5.87005C13.4493 4.70291 11.8629 4.04741 10.209 4.04741Z" fill="#323232"/>
</svg>
