<svg width="92" height="68" viewBox="0 0 92 68" fill="none" xmlns="http://www.w3.org/2000/svg">
<path d="M54.5099 43.1746C54.0905 43.1802 53.6899 43.3526 53.3933 43.655C53.0968 43.9574 52.9277 44.366 52.9222 44.7937V66.381C52.9222 66.8104 53.0895 67.2222 53.3872 67.5258C53.685 67.8294 54.0888 68 54.5099 68C54.931 68 55.3348 67.8294 55.6326 67.5258C55.9303 67.2222 56.0976 66.8104 56.0976 66.381V44.7937C56.0921 44.366 55.9231 43.9574 55.6265 43.655C55.3299 43.3526 54.9293 43.1802 54.5099 43.1746ZM37.5748 43.1746C37.1554 43.1802 36.7548 43.3526 36.4582 43.655C36.1616 43.9574 35.9926 44.366 35.9871 44.7937V66.381C35.9871 66.8104 36.1544 67.2222 36.4521 67.5258C36.7499 67.8294 37.1537 68 37.5748 68C37.9959 68 38.3997 67.8294 38.6974 67.5258C38.9952 67.2222 39.1625 66.8104 39.1625 66.381V44.7937C39.157 44.366 38.9879 43.9574 38.6914 43.655C38.3948 43.3526 37.9942 43.1802 37.5748 43.1746ZM7.93834 47.4921C7.51896 47.4977 7.11831 47.67 6.82175 47.9725C6.52518 48.2749 6.35615 48.6835 6.35067 49.1111V66.381C6.35067 66.8104 6.51793 67.2222 6.81568 67.5258C7.11342 67.8294 7.51726 68 7.93834 68C8.35941 68 8.76325 67.8294 9.061 67.5258C9.35874 67.2222 9.526 66.8104 9.526 66.381V49.1111C9.52052 48.6835 9.35149 48.2749 9.05492 47.9725C8.75836 47.67 8.35771 47.4977 7.93834 47.4921ZM84.1464 47.4921C83.727 47.4977 83.3263 47.67 83.0298 47.9725C82.7332 48.2749 82.5642 48.6835 82.5587 49.1111V66.381C82.5587 66.8104 82.726 67.2222 83.0237 67.5258C83.3214 67.8294 83.7253 68 84.1464 68C84.5674 68 84.9713 67.8294 85.269 67.5258C85.5668 67.2222 85.734 66.8104 85.734 66.381V49.1111C85.7285 48.6835 85.5595 48.2749 85.2629 47.9725C84.9664 47.67 84.5657 47.4977 84.1464 47.4921ZM87.4487 38.8571H81.5002V36.4394C82.7882 35.6414 83.8537 34.5198 84.595 33.1818C85.3363 31.8438 85.7285 30.3342 85.734 28.7975V14.3124C85.734 12.8066 85.1475 11.3625 84.1034 10.2978C83.0593 9.23308 81.6432 8.63492 80.1666 8.63492H69.0741C67.5975 8.63492 66.1814 9.23308 65.1373 10.2978C64.0932 11.3625 63.5067 12.8066 63.5067 14.3124V28.7975C63.5122 30.3342 63.9044 31.8438 64.6457 33.1818C65.387 34.5198 66.4525 35.6414 67.7405 36.4394V38.8571H65.0944C64.9194 38.8248 64.7401 38.8248 64.5651 38.8571V38.4902C64.5651 36.8413 63.9228 35.2599 62.7795 34.094C61.6361 32.928 60.0854 32.273 58.4685 32.273H53.9807V29.6825C55.2785 28.8166 56.3449 27.6353 57.0839 26.2448C57.8229 24.8544 58.2114 23.2984 58.2145 21.7168V6.06603C58.2145 4.45722 57.5878 2.9143 56.4722 1.7767C55.3566 0.639095 53.8436 0 52.266 0H39.8187C38.2411 0 36.728 0.639095 35.6125 1.7767C34.4969 2.9143 33.8702 4.45722 33.8702 6.06603V21.76C33.8733 23.3416 34.2617 24.8976 35.0008 26.288C35.7398 27.6785 36.8062 28.8598 38.104 29.7257V32.381H33.6162C32.8156 32.381 32.0228 32.5418 31.2831 32.8542C30.5434 33.1666 29.8714 33.6246 29.3052 34.2019C28.7391 34.7792 28.2901 35.4646 27.9837 36.2189C27.6773 36.9732 27.5196 37.7817 27.5196 38.5981V38.9651C27.3446 38.9327 27.1653 38.9327 26.9903 38.9651H24.3442V36.4394C25.6322 35.6414 26.6977 34.5198 27.439 33.1818C28.1803 31.8438 28.5725 30.3342 28.578 28.7975V14.3124C28.578 12.8066 27.9915 11.3625 26.9474 10.2978C25.9033 9.23308 24.4872 8.63492 23.0106 8.63492H11.9181C10.4415 8.63492 9.02539 9.23308 7.9813 10.2978C6.9372 11.3625 6.35067 12.8066 6.35067 14.3124V28.7975C6.35621 30.3342 6.74839 31.8438 7.48967 33.1818C8.23095 34.5198 9.29652 35.6414 10.5844 36.4394V38.8571H4.63599C3.40645 38.8571 2.22729 39.3552 1.35788 40.2418C0.48846 41.1284 0 42.3309 0 43.5848V66.381C0 66.8104 0.167262 67.2222 0.465008 67.5258C0.762753 67.8294 1.16659 68 1.58767 68C2.00874 68 2.41258 67.8294 2.71033 67.5258C3.00807 67.2222 3.17533 66.8104 3.17533 66.381V43.5848C3.17533 43.1897 3.32921 42.8108 3.60313 42.5315C3.87706 42.2522 4.2486 42.0952 4.63599 42.0952H10.0552C10.7935 43.2583 11.7954 44.2231 12.9763 44.9082C14.1572 45.5933 15.4824 45.9786 16.84 46.0316C18.1977 46.0845 19.5478 45.8035 20.7766 45.2123C22.0053 44.6211 23.0765 43.7371 23.8997 42.6349C24.0284 42.4692 24.1221 42.2781 24.1749 42.0737H26.9903C27.1653 42.106 27.3446 42.106 27.5196 42.0737V66.381C27.5196 66.8104 27.6868 67.2222 27.9846 67.5258C28.2823 67.8294 28.6862 68 29.1072 68C29.5283 68 29.9321 67.8294 30.2299 67.5258C30.5276 67.2222 30.6949 66.8104 30.6949 66.381V38.5981C30.6949 38.2069 30.7704 37.8195 30.9173 37.4581C31.0641 37.0966 31.2793 36.7682 31.5506 36.4916C31.8218 36.215 32.1438 35.9955 32.4983 35.8458C32.8527 35.6961 33.2326 35.619 33.6162 35.619H37.5748C37.6302 35.7387 37.6938 35.8541 37.7653 35.9644C38.7552 37.0815 39.9692 37.9682 41.3249 38.5643C42.6806 39.1604 44.1463 39.452 45.6223 39.4192C47.0983 39.3864 48.5501 39.0301 49.8791 38.3744C51.2081 37.7187 52.3832 36.7789 53.3245 35.619H58.3838C58.7674 35.619 59.1473 35.6961 59.5017 35.8458C59.8562 35.9955 60.1782 36.215 60.4495 36.4916C60.7208 36.7682 60.9359 37.0966 61.0827 37.4581C61.2295 37.8195 61.3051 38.2069 61.3051 38.5981V66.381C61.3051 66.8104 61.4724 67.2222 61.7701 67.5258C62.0679 67.8294 62.4717 68 62.8928 68C63.3138 68 63.7177 67.8294 64.0154 67.5258C64.3132 67.2222 64.4804 66.8104 64.4804 66.381V41.9873C64.6554 42.0197 64.8347 42.0197 65.0097 41.9873H67.7405C67.7933 42.1917 67.887 42.3828 68.0157 42.5486C68.8389 43.6508 69.9101 44.5348 71.1388 45.126C72.3675 45.7171 73.7177 45.9981 75.0753 45.9452C76.433 45.8923 77.7581 45.507 78.939 44.8219C80.1199 44.1368 81.1219 43.172 81.8601 42.0089H87.364C87.7514 42.0089 88.1229 42.1658 88.3969 42.4452C88.6708 42.7245 88.8247 43.1034 88.8247 43.4984V66.381C88.8247 66.8104 88.9919 67.2222 89.2897 67.5258C89.5874 67.8294 89.9913 68 90.4123 68C90.8334 68 91.2372 67.8294 91.535 67.5258C91.8327 67.2222 92 66.8104 92 66.381V43.5848C92.0002 42.3457 91.5234 41.1562 90.6722 40.272C89.821 39.3878 88.6635 38.8798 87.4487 38.8571ZM9.526 14.3124C9.53153 13.6672 9.78534 13.05 10.2328 12.5937C10.6802 12.1375 11.2854 11.8787 11.9181 11.873H23.0106C23.6433 11.8787 24.2485 12.1375 24.6959 12.5937C25.1433 13.05 25.3971 13.6672 25.4027 14.3124V17.2698H16.4059C15.9865 17.2754 15.5859 17.4478 15.2893 17.7502C14.9927 18.0527 14.8237 18.4612 14.8182 18.8889V21.5873H9.526V14.3124ZM13.5905 41.1886C13.701 40.968 13.759 40.7239 13.7598 40.4762V37.6267C14.2199 37.7208 14.6877 37.7714 15.1569 37.7778H19.7717C20.241 37.7714 20.7087 37.7208 21.1689 37.6267V40.4762C21.1491 40.6049 21.1491 40.736 21.1689 40.8648C20.2042 41.9293 18.8654 42.5609 17.4452 42.6216C16.0251 42.6823 14.6391 42.1671 13.5905 41.1886ZM19.7717 34.5397H15.1569C13.6635 34.5397 12.2312 33.9347 11.1752 32.8578C10.1192 31.781 9.526 30.3204 9.526 28.7975V24.8254H16.4059C16.8253 24.8198 17.2259 24.6474 17.5225 24.345C17.819 24.0426 17.9881 23.634 17.9936 23.2064V20.5079H25.4027V28.7975C25.4027 29.5515 25.257 30.2982 24.974 30.9949C24.6911 31.6916 24.2763 32.3246 23.7534 32.8578C23.2306 33.391 22.6098 33.814 21.9266 34.1026C21.2434 34.3912 20.5112 34.5397 19.7717 34.5397ZM37.0456 6.06603C37.0456 5.69466 37.1173 5.32693 37.2567 4.98383C37.396 4.64073 37.6003 4.32898 37.8578 4.06638C38.1153 3.80378 38.421 3.59547 38.7575 3.45336C39.0939 3.31124 39.4545 3.2381 39.8187 3.2381H52.266C52.6302 3.2381 52.9908 3.31124 53.3272 3.45336C53.6637 3.59547 53.9694 3.80378 54.2269 4.06638C54.4844 4.32898 54.6886 4.64073 54.828 4.98383C54.9674 5.32693 55.0391 5.69466 55.0391 6.06603V8.63492H41.8086C41.3892 8.64051 40.9885 8.81289 40.692 9.11531C40.3954 9.41774 40.2264 9.82631 40.2209 10.254V12.9524H37.0456V6.06603ZM50.8053 33.6978C50.1356 34.4615 49.3174 35.0747 48.4026 35.4984C47.4878 35.9221 46.4966 36.147 45.4919 36.1587C43.8871 36.1411 42.3354 35.5705 41.0888 34.5397C41.206 34.3207 41.2713 34.0767 41.2793 33.8273V31.0857C41.92 31.2227 42.5724 31.295 43.2269 31.3016H48.8578C49.5123 31.295 50.1647 31.2227 50.8053 31.0857V33.6978ZM48.8578 28.0635H43.2269C42.4152 28.0635 41.6113 27.9004 40.8614 27.5837C40.1114 27.2669 39.43 26.8026 38.856 26.2172C38.2821 25.6319 37.8267 24.937 37.5161 24.1722C37.2054 23.4075 37.0456 22.5878 37.0456 21.76V16.1905H41.8086C42.2279 16.1849 42.6286 16.0125 42.9252 15.7101C43.2217 15.4077 43.3908 14.9991 43.3962 14.5714V11.873H55.0391V21.76C55.0391 23.4318 54.3879 25.0351 53.2286 26.2172C52.0694 27.3994 50.4972 28.0635 48.8578 28.0635ZM66.682 14.3124C66.6875 13.6672 66.9414 13.05 67.3888 12.5937C67.8362 12.1375 68.4414 11.8787 69.0741 11.873H80.1666C80.7993 11.8787 81.4045 12.1375 81.8519 12.5937C82.2993 13.05 82.5532 13.6672 82.5587 14.3124V21.5873H75.1496V18.8889C75.1441 18.4612 74.9751 18.0527 74.6785 17.7502C74.3819 17.4478 73.9813 17.2754 73.5619 17.2698H66.682V14.3124ZM70.9158 40.8648C70.9356 40.736 70.9356 40.6049 70.9158 40.4762V37.6267C71.376 37.7208 71.8437 37.7714 72.313 37.7778H76.9278C77.397 37.7714 77.8648 37.7208 78.3249 37.6267V40.4762C78.3257 40.7239 78.3837 40.968 78.4942 41.1886C77.9731 41.6863 77.3601 42.0731 76.6908 42.3266C76.0215 42.5801 75.3095 42.6951 74.5961 42.665C73.8828 42.6349 73.1825 42.4602 72.5361 42.1511C71.8897 41.842 71.31 41.4047 70.8311 40.8648H70.9158ZM77.0125 34.5397H72.3976C70.9042 34.5397 69.4719 33.9347 68.4159 32.8578C67.3599 31.781 66.7667 30.3204 66.7667 28.7975V20.5079H72.0589V23.2064C72.0644 23.634 72.2335 24.0426 72.53 24.345C72.8266 24.6474 73.2272 24.8198 73.6466 24.8254H82.6434V28.7975C82.6435 29.5589 82.4951 30.3127 82.2068 31.015C81.9185 31.7174 81.4962 32.3543 80.9643 32.8887C80.4324 33.423 79.8016 33.8442 79.1087 34.1276C78.4157 34.4111 77.6743 34.5511 76.9278 34.5397H77.0125Z" fill="#323232"/>
</svg>
