<svg width="61" height="61" viewBox="0 0 61 61" fill="none" xmlns="http://www.w3.org/2000/svg">
<path d="M50.8235 31.3273C50.3026 31.3269 49.7869 31.2231 49.3065 31.0218C48.826 30.8205 48.3903 30.5258 48.0247 30.1548L30.4947 12.6248C30.1173 12.2551 29.8175 11.8137 29.6128 11.3266C29.4081 10.8396 29.3027 10.3166 29.3027 9.78823C29.3027 9.2599 29.4081 8.73689 29.6128 8.24982C29.8175 7.76275 30.1173 7.32141 30.4947 6.95166L33.4258 4.03944C34.1826 3.29567 35.2013 2.87891 36.2624 2.87891C37.3235 2.87891 38.3421 3.29567 39.0989 4.03944L56.629 21.5695C57.0063 21.9392 57.3061 22.3806 57.5108 22.8676C57.7155 23.3547 57.8209 23.8777 57.8209 24.406C57.8209 24.9344 57.7155 25.4574 57.5108 25.9445C57.3061 26.4315 57.0063 26.8729 56.629 27.2426L53.7168 30.1548C53.3387 30.5356 52.8874 30.8358 52.3902 31.0373C51.8929 31.2388 51.3599 31.3374 50.8235 31.3273ZM36.2056 6.74364C36.2056 6.74364 36.1111 6.74364 36.0922 6.74364L33.161 9.67476C33.1317 9.70902 33.1157 9.75261 33.1157 9.79769C33.1157 9.84276 33.1317 9.88635 33.161 9.9206L50.6911 27.4506C50.7253 27.4799 50.7689 27.496 50.814 27.496C50.8591 27.496 50.9027 27.4799 50.9369 27.4506L53.868 24.6141C53.8973 24.5798 53.9134 24.5362 53.9134 24.4911C53.9134 24.4461 53.8973 24.4025 53.868 24.3682L36.338 6.83819C36.3273 6.81146 36.3091 6.78836 36.2856 6.77161C36.2622 6.75486 36.2344 6.74515 36.2056 6.74364Z" fill="#12B7B6"/>
<path d="M39.0049 15.8019C38.6506 15.4496 38.1713 15.252 37.6717 15.252C37.1721 15.252 36.6928 15.4496 36.3385 15.8019L17.22 34.9204L12.7004 30.4197C12.332 30.04 11.8911 29.7381 11.4038 29.5319C10.9166 29.3258 10.3929 29.2195 9.86381 29.2195C9.33474 29.2195 8.81106 29.3258 8.32381 29.5319C7.83656 29.7381 7.39565 30.04 7.02723 30.4197L4.115 33.3319C3.73762 33.7016 3.43783 34.143 3.23316 34.63C3.02849 35.1171 2.92308 35.6401 2.92308 36.1685C2.92308 36.6968 3.02849 37.2198 3.23316 37.7069C3.43783 38.1939 3.73762 38.6353 4.115 39.005L4.24739 39.1374L4.115 39.2509L1.1839 42.182C0.808824 42.5531 0.511041 42.9948 0.307826 43.4817C0.104612 43.9686 0 44.491 0 45.0186C0 45.5462 0.104612 46.0685 0.307826 46.5554C0.511041 47.0423 0.808824 47.4841 1.1839 47.8551L5.77913 52.2046L2.54543 55.4193C2.36818 55.5951 2.2275 55.8043 2.1315 56.0347C2.03549 56.2652 1.98607 56.5123 1.98607 56.762C1.98607 57.0116 2.03549 57.2588 2.1315 57.4892C2.2275 57.7197 2.36818 57.9288 2.54543 58.1046C2.72122 58.2819 2.93038 58.4226 3.16082 58.5186C3.39126 58.6146 3.63844 58.664 3.88808 58.664C4.13772 58.664 4.38491 58.6146 4.61535 58.5186C4.84579 58.4226 5.05494 58.2819 5.23074 58.1046L8.44552 54.8709L12.9462 59.3905C13.314 59.7573 13.7505 60.048 14.2308 60.2459C14.711 60.4438 15.2255 60.5452 15.745 60.5441C16.2648 60.5483 16.7803 60.4484 17.261 60.2503C17.7416 60.0522 18.1778 59.7598 18.5437 59.3905L21.4748 56.4594L21.5883 56.327L21.7207 56.4594C22.0904 56.8368 22.5318 57.1366 23.0188 57.3413C23.5059 57.5459 24.0289 57.6514 24.5572 57.6514C25.0856 57.6514 25.6086 57.5459 26.0957 57.3413C26.5827 57.1366 27.0241 56.8368 27.3938 56.4594L30.306 53.5472C30.6834 53.1774 30.9832 52.7361 31.1879 52.249C31.3926 51.762 31.498 51.239 31.498 50.7106C31.498 50.1823 31.3926 49.6593 31.1879 49.1722C30.9832 48.6851 30.6834 48.2438 30.306 47.8741L25.7297 43.5246L44.8482 24.4061C45.2004 24.0518 45.3981 23.5725 45.3981 23.0729C45.3981 22.5734 45.2004 22.0941 44.8482 21.7398L39.0049 15.8019ZM18.7896 53.793L15.8773 56.762C15.8614 56.7786 15.8424 56.7918 15.8212 56.8008C15.8001 56.8098 15.7774 56.8145 15.7544 56.8145C15.7314 56.8145 15.7087 56.8098 15.6876 56.8008C15.6665 56.7918 15.6474 56.7786 15.6315 56.762L3.88808 45.0186C3.87149 45.0027 3.85829 44.9836 3.84927 44.9625C3.84025 44.9414 3.8356 44.9186 3.8356 44.8956C3.8356 44.8727 3.84025 44.85 3.84927 44.8288C3.85829 44.8077 3.87149 44.7886 3.88808 44.7727L6.80029 41.8605C6.82123 41.8517 6.84374 41.8471 6.86648 41.8471C6.88922 41.8471 6.91173 41.8517 6.93267 41.8605C6.9504 41.8521 6.96978 41.8477 6.9894 41.8477C7.00903 41.8477 7.0284 41.8521 7.04613 41.8605L18.7328 53.5472C18.7679 53.5763 18.7925 53.6161 18.8027 53.6605C18.813 53.7049 18.8083 53.7515 18.7896 53.793ZM27.564 50.8619L24.6896 53.793C24.6554 53.8223 24.6118 53.8384 24.5667 53.8384C24.5216 53.8384 24.478 53.8223 24.4438 53.793L6.91377 36.263C6.88448 36.2288 6.86836 36.1852 6.86836 36.1401C6.86836 36.095 6.88448 36.0514 6.91377 36.0172L9.84488 33.086C9.86261 33.0776 9.88198 33.0733 9.90161 33.0733C9.92123 33.0733 9.94063 33.0776 9.95836 33.086C9.97931 33.0772 10.0018 33.0727 10.0245 33.0727C10.0473 33.0727 10.0698 33.0772 10.0907 33.086L15.9341 38.9294L21.7774 44.7727L27.6208 50.6161C27.6432 50.6568 27.6498 50.7045 27.6394 50.7498C27.6289 50.7952 27.6021 50.8351 27.564 50.8619ZM23.0633 40.7637L19.8864 37.5867L37.6622 19.8109L40.8392 22.9878L23.0633 40.7637Z" fill="#12B7B6"/>
<path d="M59.4661 12.8706L54.9465 8.36988L58.1802 5.1551C58.3565 4.97878 58.4963 4.76946 58.5917 4.53909C58.6872 4.30872 58.7363 4.06181 58.7363 3.81245C58.7363 3.5631 58.6872 3.31619 58.5917 3.08582C58.4963 2.85545 58.3565 2.64613 58.1802 2.46981C58.0038 2.29349 57.7945 2.15363 57.5641 2.05821C57.3338 1.96278 57.0869 1.91367 56.8375 1.91367C56.5881 1.91367 56.3412 1.96278 56.1109 2.05821C55.8805 2.15363 55.6712 2.29349 55.4948 2.46981L52.2801 5.7035L47.7794 1.1839C47.4083 0.808824 46.9666 0.511063 46.4797 0.307848C45.9928 0.104633 45.4704 0 44.9428 0C44.4152 0 43.8928 0.104633 43.4059 0.307848C42.919 0.511063 42.4773 0.808824 42.1062 1.1839L39.1751 4.11502C38.8 4.48608 38.5023 4.92784 38.2991 5.41474C38.0959 5.90163 37.9912 6.42399 37.9912 6.9516C37.9912 7.4792 38.0959 8.00156 38.2991 8.48845C38.5023 8.97535 38.8 9.41711 39.1751 9.78817L50.8618 21.4749C51.2315 21.8522 51.6729 22.152 52.1599 22.3567C52.647 22.5614 53.17 22.6668 53.6984 22.6668C54.2267 22.6668 54.7497 22.5614 55.2368 22.3567C55.7238 22.152 56.1652 21.8522 56.5349 21.4749L59.4661 18.5437C59.8411 18.1727 60.1389 17.7309 60.3421 17.244C60.5453 16.7571 60.65 16.2348 60.65 15.7072C60.65 15.1796 60.5453 14.6572 60.3421 14.1703C60.1389 13.6834 59.8411 13.2416 59.4661 12.8706ZM53.7929 18.7139C53.7572 18.74 53.7142 18.7541 53.67 18.7541C53.6258 18.7541 53.5827 18.74 53.5471 18.7139L41.8604 7.02724C41.8343 6.99158 41.8202 6.94852 41.8202 6.90432C41.8202 6.86011 41.8343 6.81706 41.8604 6.7814L44.8483 3.81245C44.8692 3.80361 44.8917 3.79906 44.9144 3.79906C44.9372 3.79906 44.9597 3.80361 44.9806 3.81245C44.9983 3.80404 45.0177 3.79968 45.0373 3.79968C45.057 3.79968 45.0763 3.80404 45.0941 3.81245L56.8375 15.5559C56.8541 15.5718 56.8673 15.5908 56.8763 15.612C56.8853 15.6331 56.89 15.6558 56.89 15.6788C56.89 15.7018 56.8853 15.7245 56.8763 15.7456C56.8673 15.7667 56.8541 15.7858 56.8375 15.8017L53.7929 18.7139Z" fill="#12B7B6"/>
</svg>
