<svg width="72" height="95" viewBox="0 0 72 95" fill="none" xmlns="http://www.w3.org/2000/svg">
<path d="M70.2996 44.7586C69.7577 44.2242 69.1141 43.8079 68.4082 43.5353L69.4829 42.4431C69.9878 41.9317 70.3884 41.324 70.6618 40.6549C70.9351 39.9858 71.0759 39.2684 71.0759 38.5439C71.0759 37.8194 70.9351 37.1021 70.6618 36.433C70.3884 35.7639 69.9878 35.1562 69.4829 34.6448C68.9301 34.0922 68.2615 33.674 67.5271 33.4215L68.7307 32.2201C69.7481 31.186 70.3197 29.7834 70.3197 28.3209C70.3197 26.8584 69.7481 25.4559 68.7307 24.4218C67.7132 23.3876 66.3332 22.8067 64.8943 22.8067C63.4554 22.8067 62.0754 23.3876 61.0579 24.4218L54.6103 30.975C54.2018 30.0026 53.6021 29.1255 52.8479 28.3974C52.1549 27.699 51.3329 27.1465 50.4294 26.7716C49.5258 26.3968 48.5582 26.2069 47.5823 26.213H42.3597C42.9185 25.6887 43.5203 25.1863 44.1006 24.662C45.9919 22.98 47.7757 21.4073 48.6139 20.5554C51.5584 17.6719 54.4813 14.0021 53.6216 9.21829C53.1549 6.65611 51.8291 4.33745 49.8698 2.6568C47.9106 0.976155 45.439 0.0373381 42.8755 9.28042e-05H42.7466C40.8907 0.0312504 39.0727 0.538096 37.4609 1.47364C35.8491 2.40918 34.4958 3.74314 33.5264 5.35188C32.5663 3.75407 31.2269 2.4268 29.631 1.49176C28.0351 0.556709 26.2338 0.0438081 24.3922 9.28042e-05C21.8009 -0.0105491 19.2866 0.89434 17.2793 2.55994C15.272 4.22555 13.8965 6.54835 13.3882 9.13091C12.4856 14.0458 15.3655 17.4753 18.3744 20.5554C20.8675 23.0674 28.6047 30.276 31.2697 32.8099L20.5236 43.7319C17.8327 46.4566 15.4929 49.5174 13.5602 52.8409C12.9595 54.3531 12.2408 55.814 11.4109 57.2097L11.0671 56.882C10.7648 56.5752 10.3551 56.4029 9.92798 56.4029C9.50082 56.4029 9.09113 56.5752 8.78889 56.882L0.471388 65.292C0.169529 65.5992 0 66.0156 0 66.4497C0 66.8839 0.169529 67.3003 0.471388 67.6074L26.9928 94.5193C27.1409 94.6735 27.3182 94.7956 27.5139 94.8782C27.7097 94.9607 27.9199 95.0022 28.1319 94.9999C28.3437 95.0009 28.5535 94.9589 28.7491 94.8764C28.9447 94.7939 29.1221 94.6725 29.271 94.5193L37.5454 86.1094C37.8473 85.8022 38.0169 85.3858 38.0169 84.9516C38.0169 84.5175 37.8473 84.1011 37.5454 83.7939L36.9222 83.1386C38.3423 82.0791 39.8528 81.1506 41.4356 80.3644C43.4939 79.3525 45.3688 77.9935 46.9805 76.3451L70.407 52.5351C70.912 52.0237 71.3126 51.416 71.5859 50.7469C71.8593 50.0778 72 49.3604 72 48.6359C72 47.9114 71.8593 47.194 71.5859 46.5249C71.3126 45.8558 70.912 45.2481 70.407 44.7367L70.2996 44.7586ZM20.5236 18.2399C17.9231 15.5749 15.8168 13.0847 16.4401 9.74254C16.76 7.92117 17.6949 6.27021 19.0836 5.07403C20.4724 3.87785 22.2281 3.21135 24.0483 3.18932H24.1988C26.2211 3.24041 28.1443 4.09007 29.5606 5.55812C30.977 7.02617 31.775 8.99716 31.7855 11.0532C31.7855 11.4877 31.9554 11.9044 32.2577 12.2116C32.5599 12.5189 32.97 12.6915 33.3975 12.6915C33.825 12.6915 34.235 12.5189 34.5373 12.2116C34.8396 11.9044 35.0094 11.4877 35.0094 11.0532C35.0203 8.98605 35.8273 7.00548 37.2574 5.53564C38.6875 4.06579 40.627 3.22356 42.6606 3.18932C44.4857 3.20206 46.2486 3.86477 47.6427 5.06211C49.0367 6.25946 49.9736 7.91566 50.2903 9.74254C50.8491 12.8662 49.0653 15.3783 46.2283 18.1743C45.4331 18.9389 43.6707 20.5117 41.8224 22.15C39.9741 23.7883 38.2547 25.3174 36.9652 26.5188C35.8281 26.837 34.7868 27.4375 33.9348 28.2663C33.4721 28.7227 33.0678 29.2365 32.7312 29.7954C29.6793 26.9557 22.8018 20.5553 20.5236 18.2399ZM28.0459 91.068L3.80269 66.4715L9.84199 60.3771L34.0422 84.9735L28.0459 91.068ZM68.1504 50.2414L44.7239 74.0514C43.3653 75.4357 41.789 76.58 40.06 77.4373C38.1419 78.3805 36.3205 79.5146 34.6225 80.8231L13.7536 59.6125C14.8585 57.8864 15.8149 56.0666 16.6121 54.1734C18.3779 51.2202 20.4847 48.4922 22.8878 46.0474L32.7527 35.9991C32.8837 36.2046 33.0273 36.4016 33.1825 36.5889C33.619 37.6901 33.7294 38.897 33.5003 40.0612C33.2713 41.2253 32.7126 42.2962 31.893 43.1421L27.0787 48.0133C26.8188 48.3158 26.6755 48.7039 26.6755 49.1055C26.6755 49.5072 26.8188 49.8952 27.0787 50.1977L33.0536 56.882C34.4239 58.4242 35.1591 60.4425 35.1071 62.5199C35.0551 64.5972 34.2199 66.5749 32.7742 68.0443C32.4723 68.3515 32.3028 68.7679 32.3028 69.202C32.3028 69.6362 32.4723 70.0526 32.7742 70.3598C33.0764 70.6666 33.4861 70.8389 33.9133 70.8389C34.3404 70.8389 34.7501 70.6666 35.0524 70.3598C37.0844 68.2952 38.2577 65.5157 38.3297 62.5964C38.4017 59.677 37.3669 56.8413 35.4392 54.6758L30.496 49.1492L34.2142 45.3702C35.9265 43.6324 36.8924 41.2764 36.9007 38.817C36.9007 38.5985 36.9007 38.402 36.9007 38.1835H37.524H44.5089C44.9364 38.1835 45.3464 38.0109 45.6487 37.7037C45.951 37.3964 46.1208 36.9797 46.1208 36.5452C46.1208 36.1107 45.951 35.694 45.6487 35.3867C45.3464 35.0795 44.9364 34.9069 44.5089 34.9069H36.9222C36.7168 34.9531 36.5039 34.9515 36.2992 34.9023C36.0945 34.8532 35.9034 34.7576 35.7401 34.6229C35.5535 34.2327 35.3454 33.8535 35.1168 33.487C35.0948 33.335 35.0948 33.1804 35.1168 33.0283C35.157 32.5552 35.2899 32.095 35.5076 31.6748C35.7254 31.2547 36.0237 30.883 36.3849 30.5818C37.2026 29.8145 38.2812 29.3995 39.3938 29.424H47.7972C48.9098 29.3995 49.9884 29.8145 50.8061 30.5818C51.1711 30.8796 51.4719 31.2504 51.69 31.6712C51.9082 32.0921 52.0389 32.554 52.0742 33.0283C52.0537 33.1951 52.0537 33.3639 52.0742 33.5307L39.8236 45.9818C39.5218 46.289 39.3522 46.7054 39.3522 47.1396C39.3522 47.5737 39.5218 47.9901 39.8236 48.2973C40.1322 48.6003 40.5444 48.7696 40.9734 48.7696C41.4025 48.7696 41.8147 48.6003 42.1233 48.2973L63.3791 26.6717C63.6746 26.3292 64.0681 26.0892 64.5044 25.9852C64.9408 25.8812 65.3982 25.9185 65.8127 26.0919C66.2272 26.2652 66.578 26.5659 66.816 26.9518C67.054 27.3378 67.1674 27.7898 67.1402 28.2445C67.1448 28.5408 67.09 28.835 66.9792 29.1092C66.8683 29.3833 66.7037 29.6317 66.4954 29.8391L45.2182 51.4429C44.9163 51.75 44.7468 52.1664 44.7468 52.6006C44.7468 53.0347 44.9163 53.4511 45.2182 53.7583C45.3664 53.9129 45.5435 54.0357 45.7391 54.1196C45.9347 54.2035 46.1449 54.2467 46.3573 54.2467C46.5696 54.2467 46.7798 54.2035 46.9754 54.1196C47.171 54.0357 47.3482 53.9129 47.4963 53.7583L64.1098 36.8729C64.5231 36.4528 65.0836 36.2169 65.668 36.2169C66.2524 36.2169 66.813 36.4528 67.2262 36.8729C67.6395 37.2929 67.8716 37.8626 67.8716 38.4566C67.8716 39.0506 67.6395 39.6202 67.2262 40.0403L50.6127 56.9257C50.4606 57.0763 50.3398 57.2564 50.2572 57.4552C50.1747 57.654 50.1322 57.8676 50.1322 58.0834C50.1322 58.2992 50.1747 58.5129 50.2572 58.7117C50.3398 58.9105 50.4606 59.0906 50.6127 59.2412C50.7592 59.3974 50.9362 59.5209 51.1324 59.6036C51.3285 59.6864 51.5395 59.7266 51.7518 59.7217C51.9636 59.7228 52.1734 59.6808 52.369 59.5982C52.5647 59.5157 52.7421 59.3943 52.8909 59.2412L64.9265 46.9867C65.1273 46.7719 65.369 46.6008 65.6368 46.4839C65.9047 46.367 66.1932 46.3068 66.4847 46.3068C66.7762 46.3068 67.0647 46.367 67.3326 46.4839C67.6004 46.6008 67.8421 46.7719 68.0429 46.9867C68.2512 47.1941 68.4158 47.4424 68.5266 47.7166C68.6375 47.9907 68.6922 48.2849 68.6877 48.5813C68.7154 48.8807 68.6819 49.1827 68.5895 49.4683C68.497 49.754 68.3475 50.0172 68.1504 50.2414Z" fill="#323232"/>
</svg>
