<svg width="63" height="63" viewBox="0 0 63 63" fill="none" xmlns="http://www.w3.org/2000/svg">
<path d="M60.9453 26.223L51.2313 22.3374C50.7521 22.1468 50.2169 22.1543 49.7432 22.3584C49.2696 22.5624 48.8964 22.9462 48.7057 23.4254C48.5151 23.9046 48.5225 24.4399 48.7266 24.9135C48.9306 25.3872 49.3145 25.7604 49.7937 25.951L58.2836 29.3509V57.9099L46.6269 52.0815V35.801C46.6269 35.2857 46.4222 34.7916 46.0579 34.4272C45.6935 34.0629 45.1994 33.8582 44.6841 33.8582C44.1689 33.8582 43.6747 34.0629 43.3104 34.4272C42.9461 34.7916 42.7413 35.2857 42.7413 35.801V52.1592L33.0274 57.7156V49.4005C33.0274 48.8852 32.8227 48.3911 32.4583 48.0267C32.094 47.6624 31.5999 47.4577 31.0846 47.4577C30.5694 47.4577 30.0752 47.6624 29.7109 48.0267C29.3465 48.3911 29.1418 48.8852 29.1418 49.4005V57.7156L19.4279 52.1592V35.801C19.4279 35.2857 19.2232 34.7916 18.8588 34.4272C18.4945 34.0629 18.0004 33.8582 17.4851 33.8582C16.9698 33.8582 16.4757 34.0629 16.1114 34.4272C15.747 34.7916 15.5423 35.2857 15.5423 35.801V52.0815L3.88558 57.9099V29.3509L12.3756 25.951C12.6128 25.8566 12.8292 25.7164 13.0123 25.5384C13.1953 25.3604 13.3416 25.1481 13.4426 24.9135C13.5437 24.679 13.5975 24.4269 13.6011 24.1716C13.6046 23.9162 13.5579 23.6627 13.4635 23.4254C13.3691 23.1881 13.2289 22.9718 13.0509 22.7887C12.8729 22.6056 12.6605 22.4594 12.426 22.3584C12.1915 22.2573 11.9394 22.2035 11.6841 22.1999C11.4287 22.1963 11.1752 22.2431 10.9379 22.3374L1.22397 26.223C0.862484 26.367 0.552561 26.6162 0.334336 26.9383C0.11611 27.2605 -0.000372781 27.6407 3.89025e-06 28.0298V61.0572C-0.000656808 61.3874 0.0828498 61.7123 0.242615 62.0012C0.402381 62.2901 0.633136 62.5336 0.913117 62.7086C1.22229 62.9002 1.57905 63.0012 1.94279 63C2.24692 62.9982 2.5464 62.925 2.81707 62.7863L17.4851 55.4814L30.1715 62.728H30.3852L30.6377 62.8446C30.97 62.9224 31.3158 62.9224 31.648 62.8446L31.9006 62.728H32.1143L44.6841 55.4814L59.2939 62.7863C59.582 62.9341 59.9026 63.0076 60.2264 63C60.5902 63.0012 60.9469 62.9002 61.2561 62.7086C61.5361 62.5336 61.7668 62.2901 61.9266 62.0012C62.0864 61.7123 62.1699 61.3874 62.1692 61.0572V28.0298C62.1696 27.6407 62.0531 27.2605 61.8349 26.9383C61.6167 26.6162 61.3067 26.367 60.9453 26.223Z" fill="#12B7B6"/>
<path d="M31.0862 43.5719C31.3829 43.5712 31.6756 43.5025 31.9416 43.3712C32.2077 43.2399 32.4401 43.0493 32.6211 42.8142C34.0587 40.8714 46.6286 24.3189 46.6286 16.3729C46.6286 12.2508 44.9911 8.29755 42.0763 5.3828C39.1616 2.46806 35.2083 0.830566 31.0862 0.830566C26.9642 0.830566 23.0109 2.46806 20.0962 5.3828C17.1814 8.29755 15.5439 12.2508 15.5439 16.3729C15.5439 24.3189 28.1138 40.9491 29.5514 42.8142C29.7324 43.0493 29.9648 43.2399 30.2309 43.3712C30.4969 43.5025 30.7895 43.5712 31.0862 43.5719ZM31.0862 4.71614C34.1778 4.71614 37.1427 5.94426 39.3288 8.13032C41.5149 10.3164 42.743 13.2813 42.743 16.3729C42.743 21.327 35.3604 32.498 31.0862 38.3847C26.8121 32.5563 19.4295 21.327 19.4295 16.3729C19.4295 13.2813 20.6576 10.3164 22.8437 8.13032C25.0297 5.94426 27.9947 4.71614 31.0862 4.71614Z" fill="#12B7B6"/>
<path d="M38.8567 16.3727C38.8567 14.8357 38.4009 13.3333 37.547 12.0553C36.6931 10.7773 35.4795 9.78129 34.0595 9.19311C32.6395 8.60493 31.077 8.45103 29.5695 8.75089C28.0621 9.05074 26.6774 9.79087 25.5906 10.8777C24.5037 11.9645 23.7636 13.3492 23.4638 14.8566C23.1639 16.3641 23.3178 17.9266 23.906 19.3466C24.4941 20.7666 25.4902 21.9803 26.7682 22.8342C28.0461 23.6881 29.5486 24.1439 31.0856 24.1439C33.1466 24.1439 35.1233 23.3251 36.5806 21.8678C38.038 20.4104 38.8567 18.4338 38.8567 16.3727ZM27.2 16.3727C27.2 15.6042 27.4279 14.853 27.8549 14.214C28.2818 13.575 28.8886 13.077 29.5986 12.7829C30.3086 12.4888 31.0899 12.4119 31.8436 12.5618C32.5973 12.7117 33.2897 13.0818 33.8331 13.6252C34.3765 14.1686 34.7466 14.8609 34.8965 15.6147C35.0464 16.3684 34.9695 17.1497 34.6754 17.8597C34.3813 18.5697 33.8833 19.1765 33.2443 19.6035C32.6053 20.0304 31.8541 20.2583 31.0856 20.2583C30.0551 20.2583 29.0668 19.8489 28.3381 19.1202C27.6094 18.3916 27.2 17.4032 27.2 16.3727Z" fill="#12B7B6"/>
</svg>
