<svg width="69" height="65" viewBox="0 0 69 65" fill="none" xmlns="http://www.w3.org/2000/svg">
<path d="M54.5341 47.9002V21.4626C54.5341 15.834 47.9298 13.0913 34.346 13.0913C20.7623 13.0913 14.1562 15.8289 14.1562 21.4626V47.9002C14.1585 49.9496 14.9736 51.9145 16.4228 53.3637C17.872 54.8128 19.8368 55.6279 21.8863 55.6302H25.5739L20.022 62.6404C19.8168 62.9103 19.7256 63.2498 19.768 63.5862C19.8104 63.9225 19.9831 64.2288 20.2489 64.4392C20.5147 64.6497 20.8524 64.7474 21.1895 64.7115C21.5266 64.6756 21.8362 64.5088 22.0517 64.2471L24.3799 61.3066C24.4668 61.3253 24.5554 61.3345 24.6443 61.3339H44.0887C44.1654 61.3335 44.2419 61.326 44.3173 61.3117L46.6421 64.2471C46.8576 64.5088 47.1671 64.6756 47.5042 64.7115C47.8414 64.7474 48.1791 64.6497 48.4449 64.4392C48.7107 64.2288 48.8834 63.9225 48.9258 63.5862C48.9682 63.2498 48.877 62.9103 48.6718 62.6404L43.1199 55.6302H46.8075C48.8564 55.627 50.8204 54.8115 52.2688 53.3624C53.7172 51.9134 54.5319 49.949 54.5341 47.9002ZM51.9449 37.4463H35.6389V23.9409H51.9449V37.4463ZM34.3443 15.6873C42.3029 15.6873 51.7727 16.6766 51.9364 21.3518H16.7523C16.916 16.6766 26.3858 15.6873 34.3443 15.6873ZM16.7437 23.9409H33.0497V37.4463H16.7437V23.9409ZM26.4062 58.7464L28.8743 55.6302H39.8127L42.2807 58.7464H26.4062ZM21.8931 53.041C20.5301 53.0397 19.2233 52.4976 18.2595 51.5338C17.2957 50.57 16.7536 49.2632 16.7523 47.9002V40.0303H51.9518V47.8951C51.9504 49.2581 51.4083 50.5649 50.4445 51.5287C49.4807 52.4925 48.174 53.0346 46.811 53.0359L21.8931 53.041Z" fill="#12B7B6"/>
<path d="M23.3625 41.8364C22.515 41.8361 21.6864 42.0871 20.9816 42.5577C20.2768 43.0283 19.7274 43.6973 19.4028 44.4802C19.0783 45.2631 18.9932 46.1246 19.1583 46.9559C19.3234 47.7871 19.7314 48.5507 20.3305 49.1501C20.9297 49.7495 21.6931 50.1577 22.5242 50.3232C23.3554 50.4886 24.217 50.4039 25 50.0796C25.783 49.7554 26.4523 49.2062 26.9232 48.5016C27.394 47.797 27.6454 46.9685 27.6454 46.121C27.644 44.9854 27.1924 43.8966 26.3895 43.0934C25.5867 42.2903 24.4981 41.8382 23.3625 41.8364ZM23.3625 47.8147C23.0271 47.8147 22.6992 47.7153 22.4204 47.5289C22.1415 47.3425 21.9242 47.0776 21.796 46.7677C21.6677 46.4578 21.6342 46.1169 21.6998 45.7879C21.7653 45.459 21.927 45.1569 22.1643 44.9199C22.4015 44.6828 22.7038 44.5215 23.0328 44.4563C23.3618 44.3911 23.7027 44.4249 24.0125 44.5535C24.3222 44.682 24.5869 44.8996 24.773 45.1786C24.9591 45.4577 25.0582 45.7856 25.0579 46.121C25.0574 46.5704 24.8786 47.0012 24.5607 47.3188C24.2428 47.6363 23.8119 47.8147 23.3625 47.8147Z" fill="#12B7B6"/>
<path d="M49.6087 46.1208C49.6087 45.2737 49.3576 44.4457 48.887 43.7413C48.4164 43.037 47.7475 42.4881 46.9649 42.1639C46.1823 41.8397 45.3211 41.7549 44.4903 41.9202C43.6595 42.0854 42.8964 42.4934 42.2974 43.0923C41.6984 43.6913 41.2905 44.4544 41.1253 45.2852C40.96 46.116 41.0448 46.9772 41.369 47.7598C41.6932 48.5424 42.2421 49.2113 42.9464 49.6819C43.6507 50.1525 44.4788 50.4037 45.3258 50.4037C46.4613 50.4023 47.5499 49.9506 48.3528 49.1477C49.1557 48.3448 49.6074 47.2562 49.6087 46.1208ZM45.3258 47.8145C44.9904 47.8145 44.6626 47.715 44.3838 47.5286C44.1049 47.3423 43.8876 47.0774 43.7593 46.7675C43.631 46.4576 43.5976 46.1166 43.6632 45.7877C43.7287 45.4588 43.8904 45.1567 44.1276 44.9196C44.3649 44.6826 44.6672 44.5213 44.9962 44.456C45.3252 44.3908 45.6661 44.4246 45.9759 44.5532C46.2856 44.6818 46.5503 44.8994 46.7364 45.1784C46.9225 45.4574 47.0216 45.7854 47.0213 46.1208C47.0208 46.5701 46.842 47.0009 46.5241 47.3185C46.2062 47.6361 45.7752 47.8145 45.3258 47.8145Z" fill="#12B7B6"/>
<path d="M34.3638 0C15.4157 0 0 15.4157 0 34.3637C0.00280534 39.9177 1.35049 45.3883 3.92782 50.3081C6.50516 55.2278 10.2355 59.4502 14.7999 62.6144L16.2753 60.4892C12.0546 57.5627 8.6051 53.6579 6.22175 49.1083C3.8384 44.5587 2.59205 39.4998 2.58921 34.3637C2.58921 16.8433 16.8433 2.58916 34.3638 2.58916C51.8842 2.58916 66.1383 16.8433 66.1383 34.3637C66.1368 39.5012 64.8911 44.5619 62.5077 49.1131C60.1243 53.6642 56.6741 57.5704 52.4521 60.4977L53.9276 62.6229C58.4917 59.4584 62.2218 55.2359 64.7991 50.3163C67.3764 45.3966 68.7242 39.9261 68.7275 34.3722C68.7275 15.4156 53.3118 0 34.3638 0Z" fill="#12B7B6"/>
</svg>
