<svg width="127" height="127" viewBox="0 0 127 127" fill="none" xmlns="http://www.w3.org/2000/svg">
<path d="M94.434 10.5978C94.0513 7.93889 92.627 5.54069 90.4743 3.93082C88.3216 2.32094 85.6168 1.63128 82.955 2.0135C80.2933 2.39572 77.8925 3.81854 76.2809 5.96895C74.6693 8.11936 73.9789 10.8212 74.3615 13.4801L94.434 10.5978Z" fill="#26C5BF"/>
<path d="M32.3457 10.5978C32.4963 9.24902 32.9167 7.94422 33.5819 6.76092C34.2472 5.57763 35.1437 4.53997 36.2183 3.70956C37.2928 2.87916 38.5235 2.27297 39.8372 1.92697C41.1509 1.58097 42.5208 1.50224 43.8655 1.69545C45.2103 1.88866 46.5024 2.34988 47.6653 3.05169C48.8281 3.75351 49.8378 4.6816 50.6346 5.78087C51.4313 6.88013 51.9987 8.12816 52.3031 9.45077C52.6076 10.7734 52.6428 12.1436 52.4067 13.4801L32.3457 10.5978Z" fill="#26C5BF"/>
<path d="M63.5151 84.8776C67.4644 84.8776 70.6659 81.6795 70.6659 77.7345C70.6659 73.7894 67.4644 70.5913 63.5151 70.5913C59.5658 70.5913 56.3643 73.7894 56.3643 77.7345C56.3643 81.6795 59.5658 84.8776 63.5151 84.8776Z" fill="white"/>
<path d="M70.1864 45.2655C70.1864 43.4979 69.4835 41.8027 68.2323 40.5529C66.9811 39.303 65.2841 38.6008 63.5147 38.6008C61.7452 38.6008 60.0482 39.303 58.797 40.5529C57.5458 41.8027 56.8429 43.4979 56.8429 45.2655L56.6147 77.7572C56.6147 75.9956 57.3153 74.3062 58.5622 73.0606C59.8091 71.815 61.5003 71.1153 63.2638 71.1153C65.0272 71.1153 66.7184 71.815 67.9653 73.0606C69.2122 74.3062 69.9127 75.9956 69.9127 77.7572L70.1864 45.2655Z" fill="#26C5BF"/>
<path d="M39.9413 9.7774C35.9074 9.69443 31.9682 11.0032 28.7876 13.4831C25.6071 15.963 23.3796 19.4624 22.4806 23.3915L5.51025 84.0001C8.53276 78.8222 13.1895 74.7924 18.7509 72.542C24.3122 70.2916 30.4637 69.948 36.2416 71.5648C42.0194 73.1817 47.097 76.6677 50.6787 81.4766C54.2603 86.2855 56.1437 92.1455 56.0335 98.1383L57.174 27.6068C57.2148 25.3057 56.8014 23.0191 55.9573 20.8777C55.1133 18.7362 53.8553 16.7818 52.255 15.1261C50.6547 13.4704 48.7436 12.1459 46.6308 11.2282C44.518 10.3104 42.2449 9.81744 39.9413 9.7774Z" fill="white"/>
<path d="M5.50989 84.0002C3.17717 87.9919 1.90884 92.5146 1.82617 97.1359L5.50989 84.0002Z" fill="white"/>
<path d="M86.9403 9.7775C90.9698 9.70196 94.9026 11.0139 98.078 13.4931C101.253 15.9722 103.478 19.4674 104.378 23.3916L121.383 84.0002C118.36 78.8223 113.704 74.7925 108.142 72.5421C102.581 70.2918 96.4293 69.9481 90.6514 71.5649C84.8736 73.1818 79.796 76.6678 76.2144 81.4767C72.6327 86.2856 70.7494 92.1456 70.8595 98.1384L69.7191 27.6069C69.6367 22.9616 71.4045 18.4737 74.634 15.1302C77.8634 11.7867 82.29 9.86136 86.9403 9.7775Z" fill="white"/>
<path d="M121.383 84.0002C123.717 87.9907 124.982 92.5148 125.055 97.1359L121.383 84.0002Z" fill="white"/>
<path d="M98.1394 124.364C113.004 124.364 125.055 112.327 125.055 97.4778C125.055 82.6288 113.004 70.5913 98.1394 70.5913C83.2745 70.5913 71.2241 82.6288 71.2241 97.4778C71.2241 112.327 83.2745 124.364 98.1394 124.364Z" fill="#D3F3F2"/>
<path d="M28.9236 124.364C43.7885 124.364 55.8389 112.327 55.8389 97.4778C55.8389 82.6288 43.7885 70.5913 28.9236 70.5913C14.0587 70.5913 2.0083 82.6288 2.0083 97.4778C2.0083 112.327 14.0587 124.364 28.9236 124.364Z" fill="#D3F3F2"/>
<path d="M98.1283 126.438C90.5739 126.371 83.3479 123.343 78.0058 118.007C72.6638 112.671 69.6329 105.452 69.5656 97.906C69.4983 90.3597 72.4001 83.0887 77.6461 77.6583C82.8922 72.2279 90.0631 69.0723 97.6151 68.8708H98.1511C105.698 68.8813 112.94 71.845 118.326 77.1265C123.711 82.4081 126.81 89.5871 126.96 97.1244C127.091 104.756 124.187 112.127 118.885 117.622C113.582 123.118 106.315 126.288 98.6758 126.438H98.1283ZM98.1283 72.2886H97.6493C92.6288 72.3856 87.7498 73.9676 83.6295 76.8347C79.5091 79.7017 76.3324 83.725 74.5012 88.3957C72.67 93.0663 72.2665 98.1746 73.3418 103.074C74.4171 107.974 76.9229 112.445 80.5422 115.922C82.9332 118.247 85.7645 120.073 88.8703 121.291C91.9762 122.51 95.2942 123.098 98.6301 123.02C105.362 122.885 111.765 120.089 116.436 115.246C121.108 110.402 123.666 103.906 123.55 97.1814C123.415 90.5386 120.681 84.2127 115.934 79.5595C111.186 74.9063 104.802 72.2962 98.1511 72.2886H98.1283Z" fill="#283133"/>
<path d="M68.2364 29.3159V27.607C68.1394 22.8438 69.8158 18.2142 72.9407 14.6153C76.0657 11.0163 80.4168 8.70417 85.1509 8.12687C89.885 7.54957 94.6652 8.74818 98.5651 11.4905C102.465 14.2328 105.207 18.3236 106.26 22.9702L106.648 24.6336L103.306 25.3854L102.93 23.7221C102.047 19.915 99.7854 16.5687 96.5803 14.3279C93.3751 12.0872 89.4533 11.1104 85.5702 11.5857C81.6872 12.061 78.1175 13.9548 75.5488 16.9023C72.9802 19.8499 71.5942 23.6426 71.6578 27.5501V29.2589L68.2364 29.3159Z" fill="#283133"/>
<path d="M105.732 21.2779L102.445 22.2251L121.002 86.4909L124.289 85.5437L105.732 21.2779Z" fill="#283133"/>
<path d="M71.5982 25.8662L68.1772 25.9216L69.3845 100.214L72.8055 100.159L71.5982 25.8662Z" fill="#283133"/>
<path d="M98.1283 126.438C90.5739 126.371 83.3479 123.343 78.0058 118.007C72.6638 112.671 69.6329 105.452 69.5656 97.906C69.4983 90.3597 72.4001 83.0887 77.6461 77.6583C82.8922 72.2279 90.0631 69.0723 97.6151 68.8708H98.1511C105.698 68.8813 112.94 71.845 118.326 77.1265C123.711 82.4081 126.81 89.5871 126.96 97.1244C127.091 104.756 124.187 112.127 118.885 117.622C113.582 123.118 106.315 126.288 98.6758 126.438H98.1283ZM98.1283 72.2886H97.6493C92.6288 72.3856 87.7498 73.9676 83.6295 76.8347C79.5091 79.7017 76.3324 83.725 74.5012 88.3957C72.67 93.0663 72.2665 98.1746 73.3418 103.074C74.4171 107.974 76.9229 112.445 80.5422 115.922C82.9332 118.247 85.7645 120.073 88.8703 121.291C91.9762 122.51 95.2942 123.098 98.6301 123.02C105.362 122.885 111.765 120.089 116.436 115.246C121.108 110.402 123.666 103.906 123.55 97.1814C123.415 90.5386 120.681 84.2127 115.934 79.5595C111.186 74.9063 104.802 72.2962 98.1511 72.2886H98.1283Z" fill="#323232"/>
<path d="M68.2364 29.3159V27.607C68.1394 22.8438 69.8158 18.2142 72.9407 14.6153C76.0657 11.0163 80.4168 8.70417 85.1509 8.12687C89.885 7.54957 94.6652 8.74818 98.5651 11.4905C102.465 14.2328 105.207 18.3236 106.26 22.9702L106.648 24.6336L103.306 25.3854L102.93 23.7221C102.047 19.915 99.7854 16.5687 96.5803 14.3279C93.3751 12.0872 89.4533 11.1104 85.5702 11.5857C81.6872 12.061 78.1175 13.9548 75.5488 16.9023C72.9802 19.8499 71.5942 23.6426 71.6578 27.5501V29.2589L68.2364 29.3159Z" fill="#323232"/>
<path d="M105.732 21.2779L102.445 22.2251L121.002 86.4909L124.289 85.5437L105.732 21.2779Z" fill="#323232"/>
<path d="M71.5982 25.8662L68.1772 25.9216L69.3845 100.214L72.8055 100.159L71.5982 25.8662Z" fill="#283133"/>
<path d="M28.9469 126.438H28.3995C20.7605 126.288 13.4928 123.118 8.19049 117.623C2.8882 112.127 -0.0157313 104.756 0.115596 97.1246H1.82632H0.115596C0.218938 91.4546 1.99631 85.9414 5.22475 81.2768C8.45319 76.6121 12.9889 73.0038 18.2626 70.9046C23.5364 68.8054 29.3133 68.3089 34.8685 69.4773C40.4237 70.6457 45.5098 73.4269 49.4885 77.4721C53.4671 81.5173 56.1612 86.6462 57.2327 92.2152C58.3041 97.7842 57.7052 103.545 55.5111 108.776C53.3169 114.006 49.6253 118.472 44.8994 121.614C40.1735 124.757 34.6239 126.435 28.9469 126.438ZM28.9469 72.2888C22.2951 72.3544 15.9345 75.0243 11.2323 79.7247C6.53015 84.425 3.86165 90.7805 3.8004 97.4252C3.73916 104.07 6.29004 110.474 10.9048 115.26C15.5196 120.046 21.8298 122.832 28.4793 123.02C35.2129 123.142 41.7196 120.589 46.5697 115.921C51.4198 111.254 54.2165 104.853 54.3454 98.1272C54.4615 91.4025 51.9034 84.9062 47.2321 80.0627C42.5608 75.2191 36.1574 72.4235 29.4259 72.2888H28.9469Z" fill="#323232"/>
<path d="M58.8386 29.3159L55.4171 29.2589V27.5501C55.4808 23.6426 54.0948 19.8499 51.5261 16.9023C48.9575 13.9548 45.3878 12.061 41.5047 11.5857C37.6217 11.1104 33.6998 12.0872 30.4947 14.3279C27.2896 16.5687 25.0278 19.915 24.1452 23.7221L23.7688 25.3854L20.4272 24.6336L20.815 22.9702C21.8679 18.3236 24.61 14.2328 28.5099 11.4905C32.4098 8.74818 37.1899 7.54957 41.9241 8.12687C46.6582 8.70417 51.0093 11.0163 54.1342 14.6153C57.2592 18.2142 58.9356 22.8438 58.8386 27.607V29.3159Z" fill="#323232"/>
<path d="M21.3237 21.2465L2.75537 85.509L6.04262 86.4568L24.6109 22.1943L21.3237 21.2465Z" fill="#323232"/>
<path d="M55.4504 25.8816L54.2432 100.174L57.6642 100.23L58.8714 25.9371L55.4504 25.8816Z" fill="#323232"/>
<path d="M58.1318 68.9733L54.7104 68.9163V67.2075C54.7995 62.2407 53.1305 57.402 49.9976 53.5443C46.8646 49.6865 42.4689 47.0575 37.5854 46.1205C32.7018 45.1835 27.6439 45.9988 23.3031 48.4226C18.9624 50.8463 15.6176 54.7231 13.8584 59.3694L13.2539 60.9757L10.0605 59.7681L10.665 58.1617C12.7126 52.7663 16.6003 48.2657 21.6436 45.4526C26.6868 42.6394 32.562 41.6942 38.2344 42.7833C43.9068 43.8725 49.0126 46.9262 52.6524 51.4066C56.2922 55.8869 58.2326 61.5066 58.1318 67.2758V68.9733Z" fill="#323232"/>
<path d="M68.8978 68.9735V67.2646C68.797 61.4954 70.7374 55.8757 74.3772 51.3953C78.017 46.915 83.1227 43.8613 88.7951 42.7721C94.4676 41.683 100.343 42.6282 105.386 45.4414C110.429 48.2545 114.317 52.7551 116.365 58.1505L116.969 59.7569L113.776 60.9645L113.171 59.3581C111.61 55.2982 108.837 51.8159 105.228 49.3828C101.62 46.9496 97.3493 45.6833 92.9961 45.7554C87.409 45.8631 82.0933 48.1818 78.2163 52.2019C74.3394 56.2221 72.2184 61.615 72.3192 67.1962V68.9051L68.8978 68.9735Z" fill="#323232"/>
<path d="M63.264 86.0736C61.6106 86.0736 59.9944 85.5839 58.6196 84.6663C57.2449 83.7487 56.1734 82.4445 55.5407 80.9186C54.9079 79.3927 54.7424 77.7136 55.0649 76.0937C55.3875 74.4738 56.1837 72.9858 57.3528 71.818C58.5219 70.6501 60.0115 69.8547 61.6331 69.5325C63.2547 69.2103 64.9356 69.3757 66.4631 70.0077C67.9906 70.6398 69.2962 71.7101 70.2148 73.0834C71.1334 74.4567 71.6236 76.0712 71.6236 77.7228C71.6206 79.9367 70.7389 82.059 69.1718 83.6244C67.6048 85.1898 65.4802 86.0706 63.264 86.0736ZM63.264 72.7899C62.2873 72.7899 61.3325 73.0792 60.5204 73.6212C59.7083 74.1633 59.0754 74.9337 58.7016 75.8351C58.3279 76.7365 58.2301 77.7283 58.4206 78.6852C58.6112 79.6421 59.0815 80.5211 59.7721 81.211C60.4628 81.9009 61.3426 82.3707 62.3006 82.561C63.2585 82.7514 64.2514 82.6537 65.1538 82.2803C66.0561 81.907 66.8274 81.2747 67.37 80.4635C67.9126 79.6523 68.2022 78.6985 68.2022 77.7228C68.2022 76.4145 67.682 75.1598 66.7559 74.2347C65.8298 73.3096 64.5737 72.7899 63.264 72.7899Z" fill="#323232"/>
<path d="M71.8974 46.9401H68.4759V45.2654C68.4759 43.9511 67.9533 42.6905 67.0229 41.7611C66.0925 40.8317 64.8306 40.3096 63.5149 40.3096C62.1991 40.3096 60.9372 40.8317 60.0068 41.7611C59.0764 42.6905 58.5538 43.9511 58.5538 45.2654V46.9743H55.1323V45.2654C55.1323 44.1658 55.3491 43.0769 55.7704 42.061C56.1917 41.0451 56.8091 40.122 57.5875 39.3444C58.3659 38.5669 59.29 37.95 60.307 37.5292C61.324 37.1084 62.4141 36.8918 63.5149 36.8918C64.6157 36.8918 65.7057 37.1084 66.7227 37.5292C67.7397 37.95 68.6638 38.5669 69.4422 39.3444C70.2206 40.122 70.838 41.0451 71.2593 42.061C71.6806 43.0769 71.8974 44.1658 71.8974 45.2654V46.9401Z" fill="#323232"/>
<path d="M72.1936 61.796H68.7722V60.0757C68.7722 58.6828 68.2182 57.347 67.2323 56.362C66.2463 55.3771 64.909 54.8238 63.5145 54.8238C62.1201 54.8238 60.7828 55.3771 59.7968 56.362C58.8108 57.347 58.2569 58.6828 58.2569 60.0757V61.7846H54.8354V60.0757C54.8354 57.7764 55.7498 55.5712 57.3775 53.9453C59.0051 52.3194 61.2127 51.406 63.5145 51.406C65.8164 51.406 68.0239 52.3194 69.6516 53.9453C71.2792 55.5712 72.1936 57.7764 72.1936 60.0757V61.796Z" fill="#323232"/>
<path d="M99.5993 119.853H97.8885C92.0647 119.847 86.4812 117.533 82.3631 113.419C78.2451 109.306 75.9289 103.728 75.9229 97.9105V96.2017H79.3443V97.9105C79.3503 102.822 81.3061 107.53 84.7825 111.003C88.2589 114.475 92.9721 116.429 97.8885 116.435H99.5993V119.853Z" fill="#323232"/>
<path d="M30.3609 119.317H28.6502C22.8264 119.311 17.2429 116.998 13.1248 112.884C9.00678 108.77 6.69061 103.193 6.68457 97.3751V95.6663H10.106V97.3751C10.1151 102.285 12.0717 106.992 15.5475 110.464C19.0232 113.936 23.7348 115.89 28.6502 115.9H30.3609V119.317Z" fill="#323232"/>
<path d="M53.5813 16.0321L50.2397 15.3485L50.5818 13.6738C51.0355 11.4862 50.6007 9.20822 49.373 7.3409C48.1453 5.47358 46.2254 4.1699 44.0355 3.71667C41.8456 3.26345 39.5651 3.69778 37.6958 4.92415C35.8265 6.15051 34.5214 8.06844 34.0677 10.256L33.7255 11.9307L30.3726 11.2472L30.7147 9.57248C31.3453 6.49659 33.1734 3.79693 35.7966 2.06741C38.4199 0.337893 41.6234 -0.279806 44.7026 0.350177C47.7818 0.980161 50.4844 2.80623 52.2157 5.42667C53.9471 8.04712 54.5655 11.2473 53.9348 14.3232L53.5813 16.0321Z" fill="#283133"/>
<path d="M72.9118 15.4168L72.6723 13.7193C72.4225 12.1701 72.4835 10.5867 72.8519 9.06126C73.2202 7.53581 73.8885 6.09874 74.8179 4.83365C75.7473 3.56856 76.9193 2.5007 78.2656 1.69217C79.6119 0.883648 81.1057 0.350595 82.6601 0.124025C84.2145 -0.102545 85.7985 -0.0180863 87.32 0.372438C88.8415 0.762963 90.27 1.45177 91.5225 2.39882C92.775 3.34587 93.8266 4.53224 94.6159 5.88895C95.4053 7.24565 95.9167 8.74561 96.1205 10.3016L96.3714 11.999L92.9499 12.4775L92.699 10.7914C92.3772 8.58472 91.1932 6.59532 89.4062 5.25868C87.6193 3.92205 85.375 3.3471 83.1647 3.6597C80.9533 3.98112 78.9599 5.16549 77.6215 6.95307C76.2831 8.74065 75.7091 10.9855 76.0253 13.1953L76.2648 14.8814L72.9118 15.4168Z" fill="#323232"/>
</svg>
