<svg width="68" height="68" viewBox="0 0 68 68" fill="none" xmlns="http://www.w3.org/2000/svg">
<path d="M0 2.19793V65.7893C0 66.3515 0.223325 66.8906 0.620848 67.2881C1.01837 67.6857 1.55753 67.909 2.11971 67.909H65.7111C66.2732 67.909 66.8124 67.6857 67.2099 67.2881C67.6074 66.8906 67.8308 66.3515 67.8308 65.7893C67.8308 65.2271 67.6074 64.6879 67.2099 64.2904C66.8124 63.8929 66.2732 63.6696 65.7111 63.6696H59.3519V57.3104C61.6007 57.3104 63.7573 56.4171 65.3474 54.827C66.9375 53.2369 67.8308 51.0803 67.8308 48.8316V31.8739C67.8308 29.6252 66.9375 27.4685 65.3474 25.8784C63.7573 24.2883 61.6007 23.395 59.3519 23.395H55.1125C52.8638 23.395 50.7071 24.2883 49.117 25.8784C47.527 27.4685 46.6337 29.6252 46.6337 31.8739V48.8316C46.6337 51.0803 47.527 53.2369 49.117 54.827C50.7071 56.4171 52.8638 57.3104 55.1125 57.3104V63.6696H42.3942V17.0359C42.393 16.6089 42.2628 16.1923 42.0207 15.8405C41.7787 15.4887 41.436 15.2183 41.0376 15.0646L2.88281 0.226611C2.56217 0.102884 2.21625 0.0589624 1.87487 0.098657C1.53349 0.138352 1.20689 0.260448 0.923201 0.454444C0.639509 0.648439 0.407227 0.908509 0.246398 1.21224C0.08557 1.51596 0.00101407 1.85425 0 2.19793ZM59.3519 53.071V40.3527C59.3519 39.7906 59.1286 39.2514 58.7311 38.8539C58.3336 38.4563 57.7944 38.233 57.2322 38.233C56.67 38.233 56.1309 38.4563 55.7333 38.8539C55.3358 39.2514 55.1125 39.7906 55.1125 40.3527V53.071C53.9881 53.071 52.9098 52.6244 52.1148 51.8293C51.3197 51.0343 50.8731 49.9559 50.8731 48.8316V31.8739C50.8731 30.7495 51.3197 29.6712 52.1148 28.8762C52.9098 28.0811 53.9881 27.6345 55.1125 27.6345H59.3519C60.4763 27.6345 61.5546 28.0811 62.3497 28.8762C63.1447 29.6712 63.5914 30.7495 63.5914 31.8739V48.8316C63.5914 49.9559 63.1447 51.0343 62.3497 51.8293C61.5546 52.6244 60.4763 53.071 59.3519 53.071ZM4.23942 5.29272L38.1548 18.4773V63.6696H33.9154V57.3104C33.9154 56.7482 33.6921 56.2091 33.2945 55.8116C32.897 55.414 32.3579 55.1907 31.7957 55.1907C31.2335 55.1907 30.6943 55.414 30.2968 55.8116C29.8993 56.2091 29.676 56.7482 29.676 57.3104V63.6696H12.7183V57.3104C12.7183 56.7482 12.4949 56.2091 12.0974 55.8116C11.6999 55.414 11.1607 55.1907 10.5986 55.1907C10.0364 55.1907 9.49722 55.414 9.09969 55.8116C8.70217 56.2091 8.47885 56.7482 8.47885 57.3104V63.6696H4.23942V5.29272Z" fill="#12B7B6"/>
<path d="M33.9152 38.2334H29.6758V42.4728H33.9152V38.2334Z" fill="#12B7B6"/>
<path d="M23.3175 38.2334H19.0781V42.4728H23.3175V38.2334Z" fill="#12B7B6"/>
<path d="M12.7179 38.2334H8.47852V42.4728H12.7179V38.2334Z" fill="#12B7B6"/>
<path d="M33.9152 46.7119H29.6758V50.9513H33.9152V46.7119Z" fill="#12B7B6"/>
<path d="M23.3175 46.7119H19.0781V50.9513H23.3175V46.7119Z" fill="#12B7B6"/>
<path d="M23.3175 55.1904H19.0781V59.4299H23.3175V55.1904Z" fill="#12B7B6"/>
<path d="M12.7179 46.7119H8.47852V50.9513H12.7179V46.7119Z" fill="#12B7B6"/>
<path d="M33.9152 21.2754H29.6758V25.5148H33.9152V21.2754Z" fill="#12B7B6"/>
<path d="M23.3175 21.2754H19.0781V25.5148H23.3175V21.2754Z" fill="#12B7B6"/>
<path d="M12.7179 21.2754H8.47852V25.5148H12.7179V21.2754Z" fill="#12B7B6"/>
<path d="M12.7179 12.7964H8.47852V17.0358H12.7179V12.7964Z" fill="#12B7B6"/>
<path d="M33.9152 29.7539H29.6758V33.9933H33.9152V29.7539Z" fill="#12B7B6"/>
<path d="M23.3175 29.7539H19.0781V33.9933H23.3175V29.7539Z" fill="#12B7B6"/>
<path d="M12.7179 29.7539H8.47852V33.9933H12.7179V29.7539Z" fill="#12B7B6"/>
</svg>
