<svg width="81" height="48" viewBox="0 0 81 48" fill="none" xmlns="http://www.w3.org/2000/svg">
<path d="M63.1383 14.7036H48.2116L48.686 14.0918L31.3487 0.650619C31.1049 0.46189 30.8053 0.359451 30.497 0.359375H22.8038C22.544 0.359166 22.2894 0.431824 22.0689 0.569089C21.8484 0.706354 21.6708 0.902721 21.5563 1.13588C21.4418 1.36904 21.3951 1.62963 21.4213 1.88805C21.4475 2.14647 21.5457 2.39235 21.7047 2.59774L29.147 12.2491L31.3451 10.5511L25.6283 3.1381H30.0098L44.9273 14.7036H22.7067L8.75627 2.36878C8.50341 2.14533 8.17784 2.02161 7.84041 2.02075H1.39092C1.15011 2.02064 0.913397 2.08308 0.703974 2.20195C0.494552 2.32082 0.319599 2.49205 0.196248 2.69887C0.0728969 2.90569 0.00537862 3.141 0.000308318 3.38175C-0.00476199 3.62251 0.0527798 3.86045 0.167314 4.07228L5.91893 14.6963H1.39092C1.02219 14.6963 0.668568 14.8427 0.40784 15.1035C0.147112 15.3642 0.000632537 15.7178 0.000632537 16.0866V22.5324C0.000707769 22.8132 0.0858009 23.0873 0.244702 23.3188C0.403603 23.5503 0.628862 23.7283 0.890847 23.8292C1.60522 24.104 18.4479 30.5755 23.6354 30.5755H33.2922L21.7121 45.5956C21.5531 45.801 21.4549 46.0469 21.4286 46.3053C21.4024 46.5637 21.4492 46.8243 21.5636 47.0575C21.6781 47.2906 21.8557 47.487 22.0762 47.6243C22.2967 47.7615 22.5513 47.8342 22.8111 47.834H30.5043C30.8127 47.8339 31.1122 47.7315 31.3561 47.5427L53.2177 30.5773H72.4013C75.7662 30.5773 80.7448 28.632 80.7448 24.4557C80.7448 19.902 71.3646 14.7036 63.1383 14.7036ZM72.4013 27.8023H52.7433C52.4344 27.8023 52.1342 27.9048 51.8897 28.0935L30.0207 45.0589H25.6393L37.2268 30.0388C37.3868 29.8286 37.4836 29.5771 37.5058 29.3139C37.5281 29.0506 37.4749 28.7865 37.3525 28.5524C37.23 28.3183 37.0434 28.1239 36.8145 27.992C36.5856 27.8602 36.3239 27.7962 36.0599 27.8077H23.6354C19.9719 27.8077 8.09318 23.5948 2.77935 21.5799V17.4842H8.25071C8.49152 17.4843 8.72823 17.4218 8.93765 17.303C9.14707 17.1841 9.32203 17.0128 9.44538 16.806C9.56873 16.5992 9.63625 16.3639 9.64132 16.1232C9.64639 15.8824 9.58885 15.6445 9.47431 15.4326L3.7227 4.80863H7.30921L21.2596 17.1435C21.513 17.366 21.8382 17.4896 22.1755 17.4915H63.1328C70.7912 17.4915 77.9588 22.2888 77.9588 24.4685C77.9643 26.531 74.7239 27.8023 72.4013 27.8023Z" fill="#12B7B6"/>
</svg>
