<svg width="28" height="44" viewBox="0 0 28 44" fill="none" xmlns="http://www.w3.org/2000/svg">
<path d="M27.719 9.9464C27.5321 9.75932 27.293 9.66595 27.0023 9.66595H21.6706C21.317 7.9412 20.6518 6.44404 19.6749 5.17611H26.9396C27.2311 5.17611 27.4696 5.08263 27.6571 4.89599C27.8432 4.70902 27.9367 4.46974 27.9367 4.17881V0.997742C27.9367 0.706588 27.8433 0.467746 27.6571 0.28056C27.4694 0.0938113 27.2308 0 26.9394 0H0.997633C0.706479 0 0.467637 0.0938113 0.280451 0.280451C0.0938114 0.467637 0 0.706479 0 0.997632V5.14455C0 5.41474 0.0987255 5.64855 0.296177 5.84601C0.493629 6.04346 0.727447 6.14218 0.997633 6.14218H5.51881C9.90457 6.14218 12.6901 7.3163 13.8748 9.6654H0.997633C0.706479 9.6654 0.467309 9.75878 0.280451 9.94585C0.0938114 10.1331 0 10.3719 0 10.663V13.8437C0 14.1346 0.0933746 14.3738 0.280451 14.5604C0.467637 14.7477 0.706916 14.8409 0.997633 14.8409H14.312C13.8546 16.5458 12.7891 17.8448 11.1156 18.7387C9.44196 19.6327 7.23385 20.0797 4.48984 20.0797H0.997633C0.727447 20.0797 0.493629 20.1785 0.296177 20.3758C0.0986163 20.5734 0 20.8073 0 21.0773V25.0376C0 25.3082 0.0933746 25.5368 0.280451 25.7236C4.27131 29.964 9.44742 35.8982 15.8081 43.5276C15.9954 43.7772 16.2551 43.9017 16.5878 43.9017H22.6677C23.1047 43.9017 23.4063 43.7152 23.5721 43.3403C23.7799 42.9661 23.7392 42.6127 23.4473 42.2801C17.3782 34.8382 12.6073 29.2674 9.13585 25.5675C12.6697 25.1518 15.5383 24.0083 17.7418 22.1378C19.945 20.2672 21.2856 17.8346 21.764 14.8414H27.0023C27.293 14.8414 27.5323 14.7481 27.719 14.561C27.9063 14.3743 28 14.1351 28 13.8442V10.6639C28 10.3724 27.9063 10.1336 27.719 9.9464Z" fill="#29BDBC"/>
</svg>
