<svg width="101" height="89" viewBox="0 0 101 89" fill="none" xmlns="http://www.w3.org/2000/svg">
<path d="M98.1297 88.0073H74.1028C73.5718 88.0073 73.0625 87.7972 72.687 87.4232C72.3115 87.0491 72.1006 86.5419 72.1006 86.0129C72.1006 85.484 72.3115 84.9767 72.687 84.6027C73.0625 84.2287 73.5718 84.0186 74.1028 84.0186H98.1297C98.6607 84.0186 99.17 84.2287 99.5455 84.6027C99.921 84.9767 100.132 85.484 100.132 86.0129C100.132 86.5419 99.921 87.0491 99.5455 87.4232C99.17 87.7972 98.6607 88.0073 98.1297 88.0073Z" fill="#12B7B6"/>
<path d="M66.0938 88.0073H54.0804C53.5493 88.0073 53.04 87.7972 52.6645 87.4232C52.289 87.0492 52.0781 86.5419 52.0781 86.0129V53.1058C52.0834 50.1982 53.2453 47.4113 55.3094 45.3553C57.3735 43.2993 60.1714 42.142 63.0904 42.1367C66.0095 42.142 68.8074 43.2993 70.8715 45.3553C72.9355 47.4113 74.0975 50.1982 74.1028 53.1058C73.7333 56.4345 72.5283 59.617 70.5988 62.3597C69.3873 64.0736 68.536 66.0137 68.096 68.0636V86.0129C68.096 86.5419 67.8851 87.0492 67.5096 87.4232C67.1341 87.7972 66.6248 88.0073 66.0938 88.0073ZM56.0826 84.0186H64.0916V68.0636C64.455 65.2967 65.4929 62.6605 67.1149 60.3852C68.6438 58.2117 69.6633 55.7241 70.0983 53.1058C70.0983 51.2545 69.3599 49.479 68.0457 48.1699C66.7315 46.8609 64.949 46.1255 63.0904 46.1255C61.2318 46.1255 59.4494 46.8609 58.1351 48.1699C56.8209 49.479 56.0826 51.2545 56.0826 53.1058V84.0186Z" fill="#12B7B6"/>
<path d="M20.0424 88.0073H8.029C7.49797 88.0073 6.98866 87.7972 6.61317 87.4232C6.23768 87.0492 6.02676 86.5419 6.02676 86.0129V68.0636C5.58075 66.0122 4.72257 64.072 3.50392 62.3597C1.57443 59.617 0.36941 56.4345 0 53.1058C0.00529289 50.1982 1.16721 47.4113 3.23127 45.3553C5.29534 43.2993 8.09329 42.142 11.0123 42.1367C13.9313 42.142 16.7293 43.2993 18.7934 45.3553C20.8574 47.4113 22.0193 50.1982 22.0246 53.1058V86.0129C22.0247 86.5384 21.8165 87.0427 21.4453 87.4162C21.0741 87.7896 20.57 88.0021 20.0424 88.0073ZM10.0312 84.0186H18.0402V53.1058C18.0402 51.2545 17.3018 49.479 15.9876 48.1699C14.6734 46.8609 12.891 46.1255 11.0324 46.1255C9.17376 46.1255 7.39127 46.8609 6.07705 48.1699C4.76282 49.479 4.02452 51.2545 4.02452 53.1058C4.45947 55.7241 5.47896 58.2117 7.00784 60.3852C8.62979 62.6605 9.66783 65.2967 10.0312 68.0636V84.0186Z" fill="#12B7B6"/>
<path d="M62.0901 46.1251C61.5591 46.1251 61.0498 45.915 60.6743 45.541C60.2988 45.167 60.0879 44.6597 60.0879 44.1307V38.1476C60.0879 33.4409 51.0378 28.1758 38.0633 28.1758C25.0888 28.1758 16.0387 33.4409 16.0387 38.1476V44.1307C16.0387 44.6597 15.8277 45.167 15.4522 45.541C15.0767 45.915 14.5674 46.1251 14.0364 46.1251C13.5054 46.1251 12.9961 45.915 12.6206 45.541C12.2451 45.167 12.0342 44.6597 12.0342 44.1307V38.1476C12.0342 30.3297 23.467 24.187 38.0633 24.187C52.6596 24.187 64.0924 30.3297 64.0924 38.1476V44.1307C64.0924 44.6597 63.8814 45.167 63.5059 45.541C63.1304 45.915 62.6212 46.1251 62.0901 46.1251Z" fill="#12B7B6"/>
<path d="M54.0813 64.0744C53.5503 64.0744 53.041 63.8643 52.6655 63.4903C52.29 63.1163 52.0791 62.609 52.0791 62.08C52.0791 60.9233 46.8132 58.0913 37.0623 58.0913C27.3114 58.0913 22.0455 60.9233 22.0455 62.08C22.0455 62.609 21.8345 63.1163 21.459 63.4903C21.0835 63.8643 20.5743 64.0744 20.0433 64.0744C19.5122 64.0744 19.0029 63.8643 18.6274 63.4903C18.2519 63.1163 18.041 62.609 18.041 62.08C18.041 56.5955 27.892 54.1025 37.0623 54.1025C46.2325 54.1025 56.0835 56.5955 56.0835 62.08C56.0835 62.609 55.8726 63.1163 55.4971 63.4903C55.1216 63.8643 54.6123 64.0744 54.0813 64.0744Z" fill="#12B7B6"/>
<path d="M54.0813 82.0244H20.0433C19.5122 82.0244 19.0029 81.8143 18.6274 81.4403C18.2519 81.0662 18.041 80.559 18.041 80.03C18.041 79.5011 18.2519 78.9938 18.6274 78.6198C19.0029 78.2458 19.5122 78.0356 20.0433 78.0356H54.0813C54.6123 78.0356 55.1216 78.2458 55.4971 78.6198C55.8726 78.9938 56.0835 79.5011 56.0835 80.03C56.0835 80.559 55.8726 81.0662 55.4971 81.4403C55.1216 81.8143 54.6123 82.0244 54.0813 82.0244Z" fill="#12B7B6"/>
<path d="M84.1136 88.007C83.5825 88.007 83.0732 87.7969 82.6977 87.4228C82.3222 87.0488 82.1113 86.5415 82.1113 86.0126V26.1814C82.1113 25.6524 82.3222 25.1452 82.6977 24.7711C83.0732 24.3971 83.5825 24.187 84.1136 24.187C84.6446 24.187 85.1538 24.3971 85.5293 24.7711C85.9048 25.1452 86.1158 25.6524 86.1158 26.1814V86.0126C86.1158 86.5415 85.9048 87.0488 85.5293 87.4228C85.1538 87.7969 84.6446 88.007 84.1136 88.007Z" fill="#12B7B6"/>
<path d="M98.1303 28.1761H70.0989C69.5679 28.1761 69.0586 27.966 68.6831 27.592C68.3076 27.218 68.0967 26.7107 68.0967 26.1817V24.1874C68.097 23.9561 68.1376 23.7267 68.2168 23.5093L76.2258 1.57118C76.3657 1.18572 76.6214 0.85256 76.9582 0.617036C77.2949 0.381511 77.6964 0.255057 78.1079 0.254883H90.1213C90.5328 0.255057 90.9342 0.381511 91.271 0.617036C91.6077 0.85256 91.8635 1.18572 92.0034 1.57118L100.012 23.5093C100.092 23.7267 100.132 23.9561 100.132 24.1874V26.1817C100.132 26.7107 99.9215 27.218 99.546 27.592C99.1705 27.966 98.6613 28.1761 98.1303 28.1761ZM72.2213 24.1874H96.0079L88.7197 4.24363H79.5895L72.2213 24.1874Z" fill="#12B7B6"/>
<path d="M92.1224 44.1307C91.5913 44.1307 91.082 43.9206 90.7065 43.5466C90.331 43.1726 90.1201 42.6653 90.1201 42.1364V26.1814C90.1201 25.6524 90.331 25.1452 90.7065 24.7711C91.082 24.3971 91.5913 24.187 92.1224 24.187C92.6534 24.187 93.1626 24.3971 93.5381 24.7711C93.9136 25.1452 94.1246 25.6524 94.1246 26.1814V42.1364C94.1246 42.6653 93.9136 43.1726 93.5381 43.5466C93.1626 43.9206 92.6534 44.1307 92.1224 44.1307Z" fill="#12B7B6"/>
</svg>
