<svg width="68" height="68" viewBox="0 0 68 68" fill="none" xmlns="http://www.w3.org/2000/svg">
<path d="M65.7111 44.5139C64.3245 44.5684 62.9713 44.9549 61.7651 45.641C60.559 46.3271 59.5351 47.2926 58.7796 48.4566C57.4654 50.0464 56.6599 50.873 55.1125 50.873C53.5651 50.873 52.7596 50.0464 51.4242 48.4566C50.7115 47.2526 49.6975 46.2551 48.4821 45.5622C47.2667 44.8693 45.8918 44.5049 44.4928 44.5049C43.0937 44.5049 41.7188 44.8693 40.5034 45.5622C39.2879 46.2551 38.274 47.2526 37.5613 48.4566C36.2471 50.0464 35.4416 50.873 33.8942 50.873C32.3468 50.873 31.5625 50.0464 30.2271 48.4566C29.5131 47.2575 28.4998 46.2645 27.2866 45.5749C26.0734 44.8853 24.7018 44.5227 23.3062 44.5227C21.9107 44.5227 20.5391 44.8853 19.3259 45.5749C18.1126 46.2645 17.0994 47.2575 16.3854 48.4566C15.05 50.0464 14.2657 50.873 12.7183 50.873C11.1709 50.873 10.3654 50.0464 9.05117 48.4566C8.29308 47.2951 7.26862 46.3314 6.06302 45.6456C4.85741 44.9599 3.50549 44.5719 2.11971 44.5139C1.55753 44.5139 1.01837 44.7372 0.620848 45.1348C0.223325 45.5323 0 46.0714 0 46.6336C0 47.1958 0.223325 47.735 0.620848 48.1325C1.01837 48.53 1.55753 48.7533 2.11971 48.7533C3.7095 48.7533 4.47259 49.58 5.78681 51.1698C6.4995 52.3737 7.51348 53.3713 8.72888 54.0642C9.94429 54.7571 11.3192 55.1215 12.7183 55.1215C14.1173 55.1215 15.4922 54.7571 16.7077 54.0642C17.9231 53.3713 18.937 52.3737 19.6497 51.1698C20.9639 49.58 21.7694 48.7533 23.3168 48.7533C24.8642 48.7533 25.6485 49.58 26.9839 51.1698C27.6979 52.3689 28.7112 53.3618 29.9244 54.0514C31.1377 54.7411 32.5093 55.1036 33.9048 55.1036C35.3003 55.1036 36.6719 54.7411 37.8852 54.0514C39.0984 53.3618 40.1117 52.3689 40.8256 51.1698C42.1399 49.58 42.9454 48.7533 44.4928 48.7533C46.0401 48.7533 46.8456 49.58 48.181 51.1698C48.8937 52.3737 49.9077 53.3713 51.1231 54.0642C52.3385 54.7571 53.7135 55.1215 55.1125 55.1215C56.5116 55.1215 57.8865 54.7571 59.1019 54.0642C60.3173 53.3713 61.3313 52.3737 62.044 51.1698C63.3582 49.58 64.1637 48.7533 65.7111 48.7533C66.2732 48.7533 66.8124 48.53 67.2099 48.1325C67.6074 47.735 67.8308 47.1958 67.8308 46.6336C67.8308 46.0714 67.6074 45.5323 67.2099 45.1348C66.8124 44.7372 66.2732 44.5139 65.7111 44.5139Z" fill="#12B7B6"/>
<path d="M65.7111 57.2322C64.3245 57.2867 62.9713 57.6732 61.7651 58.3593C60.559 59.0453 59.5351 60.0109 58.7796 61.1748C57.4654 62.7646 56.6599 63.5913 55.1125 63.5913C53.5651 63.5913 52.7596 62.7646 51.4242 61.1748C50.7115 59.9709 49.6975 58.9734 48.4821 58.2804C47.2667 57.5875 45.8918 57.2231 44.4928 57.2231C43.0937 57.2231 41.7188 57.5875 40.5034 58.2804C39.2879 58.9734 38.274 59.9709 37.5613 61.1748C36.2471 62.7646 35.4416 63.5913 33.8942 63.5913C32.3468 63.5913 31.5625 62.7646 30.2271 61.1748C29.5131 59.9758 28.4998 58.9828 27.2866 58.2932C26.0734 57.6036 24.7018 57.241 23.3062 57.241C21.9107 57.241 20.5391 57.6036 19.3259 58.2932C18.1126 58.9828 17.0994 59.9758 16.3854 61.1748C15.05 62.7646 14.2657 63.5913 12.7183 63.5913C11.1709 63.5913 10.3654 62.7646 9.05117 61.1748C8.29308 60.0133 7.26862 59.0497 6.06302 58.3639C4.85741 57.6781 3.50549 57.2901 2.11971 57.2322C1.55753 57.2322 1.01837 57.4555 0.620848 57.853C0.223325 58.2505 0 58.7897 0 59.3519C0 59.9141 0.223325 60.4532 0.620848 60.8507C1.01837 61.2483 1.55753 61.4716 2.11971 61.4716C3.7095 61.4716 4.47259 62.2983 5.78681 63.8881C6.4995 65.092 7.51348 66.0895 8.72888 66.7824C9.94429 67.4754 11.3192 67.8398 12.7183 67.8398C14.1173 67.8398 15.4922 67.4754 16.7077 66.7824C17.9231 66.0895 18.937 65.092 19.6497 63.8881C20.9639 62.2983 21.7694 61.4716 23.3168 61.4716C24.8642 61.4716 25.6485 62.2983 26.9839 63.8881C27.6979 65.0871 28.7112 66.0801 29.9244 66.7697C31.1377 67.4593 32.5093 67.8219 33.9048 67.8219C35.3003 67.8219 36.6719 67.4593 37.8852 66.7697C39.0984 66.0801 40.1117 65.0871 40.8256 63.8881C42.1399 62.2983 42.9454 61.4716 44.4928 61.4716C46.0401 61.4716 46.8456 62.2983 48.181 63.8881C48.8937 65.092 49.9077 66.0895 51.1231 66.7824C52.3385 67.4754 53.7135 67.8398 55.1125 67.8398C56.5116 67.8398 57.8865 67.4754 59.1019 66.7824C60.3173 66.0895 61.3313 65.092 62.044 63.8881C63.3582 62.2983 64.1637 61.4716 65.7111 61.4716C66.2732 61.4716 66.8124 61.2483 67.2099 60.8507C67.6074 60.4532 67.8308 59.9141 67.8308 59.3519C67.8308 58.7897 67.6074 58.2505 67.2099 57.853C66.8124 57.4555 66.2732 57.2322 65.7111 57.2322Z" fill="#12B7B6"/>
<path d="M19.0777 42.3942C19.6399 42.3942 20.1791 42.1709 20.5766 41.7734C20.9741 41.3759 21.1974 40.8367 21.1974 40.2745V38.1548H46.634V40.2745C46.634 40.8367 46.8573 41.3759 47.2548 41.7734C47.6523 42.1709 48.1915 42.3942 48.7537 42.3942C49.3159 42.3942 49.855 42.1709 50.2525 41.7734C50.6501 41.3759 50.8734 40.8367 50.8734 40.2745V8.47885C50.8734 7.35448 51.32 6.27616 52.1151 5.48112C52.9101 4.68607 53.9885 4.23942 55.1128 4.23942C56.2372 4.23942 57.3155 4.68607 58.1105 5.48112C58.9056 6.27616 59.3522 7.35448 59.3522 8.47885C59.3522 9.04103 59.5756 9.58019 59.9731 9.97771C60.3706 10.3752 60.9098 10.5986 61.472 10.5986C62.0341 10.5986 62.5733 10.3752 62.9708 9.97771C63.3683 9.58019 63.5917 9.04103 63.5917 8.47885C63.5917 6.23012 62.6984 4.07348 61.1083 2.48339C59.5182 0.893298 57.3615 0 55.1128 0C52.8641 0 50.7075 0.893298 49.1174 2.48339C47.5273 4.07348 46.634 6.23012 46.634 8.47885V16.9577H21.1974V8.47885C21.1974 7.35448 21.6441 6.27616 22.4391 5.48112C23.2342 4.68607 24.3125 4.23942 25.4369 4.23942C26.5612 4.23942 27.6395 4.68607 28.4346 5.48112C29.2296 6.27616 29.6763 7.35448 29.6763 8.47885C29.6763 9.04103 29.8996 9.58019 30.2971 9.97771C30.6946 10.3752 31.2338 10.5986 31.796 10.5986C32.3582 10.5986 32.8973 10.3752 33.2949 9.97771C33.6924 9.58019 33.9157 9.04103 33.9157 8.47885C33.9157 6.23012 33.0224 4.07348 31.4323 2.48339C29.8422 0.893298 27.6856 0 25.4369 0C23.1881 0 21.0315 0.893298 19.4414 2.48339C17.8513 4.07348 16.958 6.23012 16.958 8.47885V40.2745C16.958 40.8367 17.1813 41.3759 17.5789 41.7734C17.9764 42.1709 18.5155 42.3942 19.0777 42.3942ZM21.1974 21.1971H46.634V25.4365H21.1974V21.1971ZM21.1974 29.676H46.634V33.9154H21.1974V29.676Z" fill="#12B7B6"/>
<path d="M57.2324 19.0777C57.2324 19.6399 57.4557 20.1791 57.8533 20.5766C58.2508 20.9741 58.79 21.1974 59.3521 21.1974H65.7113C66.2735 21.1974 66.8126 20.9741 67.2101 20.5766C67.6077 20.1791 67.831 19.6399 67.831 19.0777C67.831 18.5155 67.6077 17.9764 67.2101 17.5789C66.8126 17.1813 66.2735 16.958 65.7113 16.958H59.3521C58.79 16.958 58.2508 17.1813 57.8533 17.5789C57.4557 17.9764 57.2324 18.5155 57.2324 19.0777Z" fill="#12B7B6"/>
<path d="M2.11971 21.1974H8.47885C9.04103 21.1974 9.58019 20.9741 9.97771 20.5766C10.3752 20.1791 10.5986 19.6399 10.5986 19.0777C10.5986 18.5155 10.3752 17.9764 9.97771 17.5789C9.58019 17.1813 9.04103 16.958 8.47885 16.958H2.11971C1.55753 16.958 1.01837 17.1813 0.620848 17.5789C0.223325 17.9764 0 18.5155 0 19.0777C0 19.6399 0.223325 20.1791 0.620848 20.5766C1.01837 20.9741 1.55753 21.1974 2.11971 21.1974Z" fill="#12B7B6"/>
</svg>
