<svg width="71" height="57" viewBox="0 0 71 57" fill="none" xmlns="http://www.w3.org/2000/svg">
<path d="M8.19979 23.1045L5.33927 25.5149C4.36527 26.3342 3.58239 27.3568 3.04557 28.5108C2.50875 29.6648 2.231 30.9224 2.23182 32.1951V43.1491C2.23208 44.0753 2.47424 44.9854 2.93432 45.7893C3.3944 46.5932 4.05644 47.263 4.85492 47.7324V52.3898C4.85592 53.3521 5.23867 54.2748 5.91917 54.9553C6.59967 55.6358 7.52233 56.0185 8.4847 56.0195H14.3197C15.2821 56.0185 16.2048 55.6358 16.8853 54.9553C17.5658 54.2748 17.9485 53.3521 17.9495 52.3898V48.4808H52.7601V52.3898C52.7606 52.8669 52.8551 53.3393 53.0382 53.78C53.2213 54.2206 53.4893 54.6209 53.8271 54.958C54.1648 55.295 54.5657 55.5623 55.0067 55.7444C55.4478 55.9266 55.9204 56.02 56.3975 56.0195H62.2325C63.1949 56.0185 64.1176 55.6358 64.7981 54.9553C65.4786 54.2748 65.8613 53.3521 65.8623 52.3898V47.5842C66.5944 47.099 67.1949 46.4399 67.6102 45.666C68.0255 44.8921 68.2427 44.0274 68.2423 43.1491V32.1951C68.2435 30.9223 67.9659 29.6646 67.4291 28.5106C66.8923 27.3565 66.1092 26.334 65.1349 25.5149L62.2667 23.1045L64.4663 21.1823H70.4665V18.299H63.3855L60.5763 20.753L56.3672 11.1876C55.1458 8.08393 52.6633 6.43903 49.1873 6.43903H44.6211L42.6249 0H28.081L26.0866 6.43903H21.2792C17.8032 6.43903 15.3188 8.08013 14.1203 11.1306L9.88838 20.7493L7.08103 18.2952H0V21.1785H6.00027L8.19979 23.1045ZM15.0681 52.3898C15.0651 52.5873 14.9854 52.776 14.8456 52.9157C14.7059 53.0554 14.5173 53.1352 14.3197 53.1381H8.4847C8.28714 53.1352 8.0985 53.0554 7.95878 52.9157C7.81907 52.776 7.73928 52.5873 7.73633 52.3898V48.4808H15.0681V52.3898ZM62.9733 52.3898C62.9704 52.5873 62.8906 52.776 62.7509 52.9157C62.6112 53.0554 62.4225 53.1352 62.225 53.1381H56.3975C56.2 53.1352 56.0113 53.0554 55.8716 52.9157C55.7319 52.776 55.6521 52.5873 55.6492 52.3898V48.4808H62.9809L62.9733 52.3898ZM63.2696 27.7182C63.9236 28.2667 64.4495 28.9517 64.8104 29.7251C65.1714 30.4986 65.3586 31.3416 65.359 32.1951V43.1491C65.358 43.7986 65.0995 44.4213 64.6402 44.8806C64.1809 45.3399 63.5583 45.5983 62.9087 45.5993H7.56539C6.91585 45.5983 6.2932 45.3399 5.83391 44.8806C5.37461 44.4213 5.11614 43.7986 5.11514 43.1491V32.1951C5.1155 31.3416 5.30273 30.4986 5.66368 29.7251C6.02464 28.9517 6.55056 28.2667 7.2045 27.7182L10.3936 25.0153L11.2636 25.7751L14.3748 28.5331H56.0917L59.203 25.7751L60.071 25.0153L63.2696 27.7182ZM30.2065 2.88712H40.4937L41.5954 6.44283H29.1048L30.2065 2.88712ZM12.1677 22.736L16.7814 12.2456C17.5639 10.2569 18.9942 9.32995 21.2792 9.32995H49.1797C51.459 9.32995 52.895 10.2569 53.7004 12.2987L58.297 22.736L54.9958 25.663H15.4689L13.1611 23.6174L13.1421 23.6003L12.1677 22.736Z" fill="#BABABA"/>
<path d="M47.459 40.2485H23.0059V43.1319H47.459V40.2485Z" fill="#BABABA"/>
<path d="M24.9544 37.1162C25.0605 36.8478 25.0837 36.5538 25.0211 36.2721C24.9585 35.9904 24.8128 35.734 24.603 35.5359L20.2344 31.4027C20.1 31.259 19.9377 31.1442 19.7574 31.0656C19.5771 30.9869 19.3826 30.946 19.1859 30.9453C18.9892 30.9446 18.7944 30.9842 18.6136 31.0617C18.4327 31.1391 18.2696 31.2527 18.1343 31.3955C17.9991 31.5383 17.8944 31.7073 17.8269 31.8921C17.7594 32.0769 17.7304 32.2735 17.7417 32.4699C17.753 32.6663 17.8044 32.8583 17.8927 33.0341C17.981 33.2099 18.1044 33.3657 18.2552 33.4921L19.9969 35.137H13.6434C10.6461 35.137 9.59002 32.1397 9.54063 31.9934C9.422 31.6302 9.16393 31.329 8.82322 31.1561C8.4825 30.9831 8.08705 30.9526 7.72384 31.0713C7.36063 31.1899 7.05942 31.448 6.88648 31.7887C6.71354 32.1294 6.68304 32.5249 6.80167 32.8881C6.86815 33.097 8.52065 38.0165 13.6396 38.0165H23.6134C23.9013 38.0175 24.1828 37.9322 24.4218 37.7718C24.6608 37.6113 24.8463 37.383 24.9544 37.1162Z" fill="#BABABA"/>
<path d="M50.4771 35.1428L52.2189 33.4979C52.3697 33.3716 52.493 33.2157 52.5813 33.04C52.6696 32.8642 52.721 32.6722 52.7323 32.4758C52.7437 32.2794 52.7147 32.0827 52.6471 31.898C52.5796 31.7132 52.475 31.5442 52.3397 31.4014C52.2044 31.2586 52.0413 31.1449 51.8605 31.0675C51.6796 30.9901 51.4849 30.9505 51.2881 30.9512C51.0914 30.9519 50.8969 30.9928 50.7166 31.0714C50.5363 31.1501 50.374 31.2648 50.2397 31.4086L45.871 35.5417C45.6608 35.7396 45.5148 35.9961 45.4522 36.278C45.3896 36.5598 45.4132 36.854 45.5199 37.1223C45.6266 37.3905 45.8115 37.6206 46.0506 37.7824C46.2897 37.9443 46.5719 38.0305 46.8606 38.0299H56.8307C61.9591 38.0299 63.6059 33.1086 63.6686 32.9015C63.7741 32.542 63.7356 32.1555 63.5611 31.824C63.3866 31.4924 63.0899 31.2418 62.7338 31.1252C62.3777 31.0087 61.9902 31.0353 61.6534 31.1996C61.3167 31.3638 61.0571 31.6526 60.9296 32.005C60.8859 32.1342 59.8336 35.1504 56.8269 35.1504L50.4771 35.1428Z" fill="#BABABA"/>
</svg>
