<svg width="84" height="77" viewBox="0 0 84 77" fill="none" xmlns="http://www.w3.org/2000/svg">
<path d="M46.0482 59.5467H43.5181V50.82C43.5128 50.4132 43.3512 50.0246 43.0676 49.7369C42.7841 49.4493 42.401 49.2853 42 49.28H37.9518C37.5492 49.28 37.1631 49.4422 36.8784 49.731C36.5937 50.0199 36.4337 50.4116 36.4337 50.82C36.4337 51.2284 36.5937 51.6201 36.8784 51.909C37.1631 52.1978 37.5492 52.36 37.9518 52.36H40.4819V59.5467H37.9518C37.5492 59.5467 37.1631 59.7089 36.8784 59.9977C36.5937 60.2865 36.4337 60.6782 36.4337 61.0867C36.4337 61.4951 36.5937 61.8868 36.8784 62.1756C37.1631 62.4644 37.5492 62.6267 37.9518 62.6267H46.0482C46.4508 62.6267 46.8369 62.4644 47.1216 62.1756C47.4063 61.8868 47.5663 61.4951 47.5663 61.0867C47.5663 60.6782 47.4063 60.2865 47.1216 59.9977C46.8369 59.7089 46.4508 59.5467 46.0482 59.5467ZM30.3412 18.1925C30.1533 19.4889 30.2739 20.8122 30.6929 22.0517C31.1119 23.2912 31.8172 24.411 32.7499 25.3176C34.4756 26.6957 35.8815 28.4419 36.8679 30.4326C37.8543 32.4233 38.3971 34.6096 38.4578 36.8368V36.96H31.8795C31.4769 36.96 31.0908 37.1222 30.8061 37.411C30.5214 37.6999 30.3614 38.0916 30.3614 38.5C30.3614 38.9084 30.5214 39.3001 30.8061 39.589C31.0908 39.8778 31.4769 40.04 31.8795 40.04H52.1205C52.5231 40.04 52.9092 39.8778 53.1939 39.589C53.4786 39.3001 53.6386 38.9084 53.6386 38.5C53.6386 38.0916 53.4786 37.6999 53.1939 37.411C52.9092 37.1222 52.5231 36.96 52.1205 36.96H45.5422V36.8368C45.6029 34.6096 46.1457 32.4233 47.1321 30.4326C48.1185 28.4419 49.5244 26.6957 51.2501 25.3176C52.1828 24.411 52.8881 23.2912 53.3071 22.0517C53.7261 20.8122 53.8467 19.4889 53.6588 18.1925C58.1118 18.1925 61.7552 13.285 61.7552 7.35091V5.64667C61.75 5.23989 61.5883 4.85126 61.3048 4.5636C61.0212 4.27594 60.6381 4.11198 60.2371 4.10667H54.1648C53.9914 4.10918 53.8199 4.14395 53.6588 4.20931V1.54C53.6536 1.13322 53.492 0.744598 53.2084 0.456937C52.9248 0.169276 52.5417 0.00531806 52.1407 0H31.8795C31.4785 0.00531806 31.0954 0.169276 30.8119 0.456937C30.5283 0.744598 30.3667 1.13322 30.3614 1.54V4.20931C30.2004 4.14395 30.0289 4.10918 29.8554 4.10667H23.7831C23.3821 4.11198 22.9991 4.27594 22.7155 4.5636C22.4319 4.85126 22.2703 5.23989 22.2651 5.64667V7.35091C22.2651 13.285 25.8072 18.1104 30.3412 18.1925ZM54.1446 7.18667H58.6988V7.35091C58.6988 11.4576 56.3913 15.0304 53.6386 15.1125V7.08402C53.7996 7.14938 53.9711 7.18416 54.1446 7.18667ZM33.3773 17.6792V3.08H50.5822V17.6792C50.5822 20.3074 50.5821 21.7859 49.2462 22.9768C47.1812 24.6394 45.503 26.7434 44.331 29.1391C43.159 31.5347 42.5221 34.163 42.4656 36.8368V36.96H41.4535V36.8368C41.397 34.163 40.7601 31.5347 39.588 29.1391C38.416 26.7434 36.7378 24.6394 34.6728 22.9768C33.3976 21.8475 33.3368 20.3074 33.3773 17.6792ZM25.2809 7.18667H29.8554C30.0289 7.18416 30.2004 7.14938 30.3614 7.08402V15.1125C27.6087 15.1125 25.3012 11.5192 25.3012 7.35091L25.2809 7.18667ZM82.4819 73.92H1.51807C1.11545 73.92 0.729318 74.0822 0.444624 74.371C0.15993 74.6599 0 75.0516 0 75.46C0 75.8684 0.15993 76.2601 0.444624 76.549C0.729318 76.8378 1.11545 77 1.51807 77H82.4819C82.8846 77 83.2707 76.8378 83.5554 76.549C83.8401 76.2601 84 75.8684 84 75.46C84 75.0516 83.8401 74.6599 83.5554 74.371C83.2707 74.0822 82.8846 73.92 82.4819 73.92ZM3.54217 70.84H80.4578C80.8588 70.8347 81.2419 70.6707 81.5255 70.3831C81.809 70.0954 81.9707 69.7068 81.9759 69.3V50.82C81.9707 50.4132 81.809 50.0246 81.5255 49.7369C81.2419 49.4493 80.8588 49.2853 80.4578 49.28H57.6867V44.66C57.6815 44.2532 57.5199 43.8646 57.2363 43.5769C56.9528 43.2893 56.5697 43.1253 56.1687 43.12H27.8313C27.4303 43.1253 27.0473 43.2893 26.7637 43.5769C26.4801 43.8646 26.3185 44.2532 26.3133 44.66V55.44H3.54217C3.14118 55.4453 2.75809 55.6093 2.47453 55.8969C2.19096 56.1846 2.02934 56.5732 2.0241 56.98V69.3C2.02934 69.7068 2.19096 70.0954 2.47453 70.3831C2.75809 70.6707 3.14118 70.8347 3.54217 70.84ZM57.6867 52.36H78.9398V67.76H57.6867V52.36ZM29.3494 46.2H54.6506V67.76H29.3494V46.2ZM5.06024 58.52H26.3133V67.76H5.06024V58.52Z" fill="#323232"/>
</svg>
