<svg width="100" height="82" viewBox="0 0 100 82" fill="none" xmlns="http://www.w3.org/2000/svg">
<path d="M97.8215 81.1H2.08131C1.52931 81.1 0.999921 80.8822 0.6096 80.4944C0.219279 80.1067 0 79.5808 0 79.0324V54.2214C0 53.673 0.219279 53.1471 0.6096 52.7594C0.999921 52.3716 1.52931 52.1538 2.08131 52.1538H97.8215C98.3735 52.1538 98.9029 52.3716 99.2932 52.7594C99.6835 53.1471 99.9028 53.673 99.9028 54.2214V79.0324C99.9028 79.5808 99.6835 80.1067 99.2932 80.4944C98.9029 80.8822 98.3735 81.1 97.8215 81.1ZM4.16262 76.9648H95.7402V56.289H4.16262V76.9648Z" fill="#12B7B6"/>
<path d="M33.3001 81.1C32.7481 81.1 32.2187 80.8822 31.8283 80.4944C31.438 80.1067 31.2188 79.5808 31.2188 79.0324V54.2214C31.2188 53.673 31.438 53.1471 31.8283 52.7594C32.2187 52.3716 32.7481 52.1538 33.3001 52.1538C33.8521 52.1538 34.3814 52.3716 34.7718 52.7594C35.1621 53.1471 35.3814 53.673 35.3814 54.2214V79.0324C35.3814 79.5808 35.1621 80.1067 34.7718 80.4944C34.3814 80.8822 33.8521 81.1 33.3001 81.1Z" fill="#12B7B6"/>
<path d="M66.6028 81.1C66.0508 81.1 65.5214 80.8822 65.1311 80.4944C64.7408 80.1067 64.5215 79.5808 64.5215 79.0324V54.2214C64.5215 53.673 64.7408 53.1471 65.1311 52.7594C65.5214 52.3716 66.0508 52.1538 66.6028 52.1538C67.1548 52.1538 67.6842 52.3716 68.0745 52.7594C68.4648 53.1471 68.6841 53.673 68.6841 54.2214V79.0324C68.6841 79.5808 68.4648 80.1067 68.0745 80.4944C67.6842 80.8822 67.1548 81.1 66.6028 81.1Z" fill="#12B7B6"/>
<path d="M33.3009 68.6938H2.08131C1.52931 68.6938 0.999921 68.4759 0.6096 68.0882C0.219279 67.7004 0 67.1745 0 66.6262C0 66.0778 0.219279 65.5519 0.6096 65.1642C0.999921 64.7764 1.52931 64.5586 2.08131 64.5586H33.3009C33.8529 64.5586 34.3823 64.7764 34.7726 65.1642C35.163 65.5519 35.3822 66.0778 35.3822 66.6262C35.3822 67.1745 35.163 67.7004 34.7726 68.0882C34.3823 68.4759 33.8529 68.6938 33.3009 68.6938Z" fill="#12B7B6"/>
<path d="M97.8224 68.6938H66.6028C66.0508 68.6938 65.5214 68.4759 65.1311 68.0882C64.7408 67.7004 64.5215 67.1745 64.5215 66.6262C64.5215 66.0778 64.7408 65.5519 65.1311 65.1642C65.5214 64.7764 66.0508 64.5586 66.6028 64.5586H97.8224C98.3744 64.5586 98.9038 64.7764 99.2941 65.1642C99.6845 65.5519 99.9037 66.0778 99.9037 66.6262C99.9037 67.1745 99.6845 67.7004 99.2941 68.0882C98.9038 68.4759 98.3744 68.6938 97.8224 68.6938Z" fill="#12B7B6"/>
<path d="M20.8125 62.4916H14.5686C14.0166 62.4916 13.4872 62.2738 13.0969 61.886C12.7066 61.4983 12.4873 60.9724 12.4873 60.424C12.4873 59.8757 12.7066 59.3498 13.0969 58.962C13.4872 58.5743 14.0166 58.3564 14.5686 58.3564H20.8125C21.3645 58.3564 21.8939 58.5743 22.2843 58.962C22.6746 59.3498 22.8939 59.8757 22.8939 60.424C22.8939 60.9724 22.6746 61.4983 22.2843 61.886C21.8939 62.2738 21.3645 62.4916 20.8125 62.4916Z" fill="#12B7B6"/>
<path d="M20.8125 74.8969H14.5686C14.0166 74.8969 13.4872 74.6791 13.0969 74.2913C12.7066 73.9036 12.4873 73.3777 12.4873 72.8293C12.4873 72.2809 12.7066 71.755 13.0969 71.3673C13.4872 70.9796 14.0166 70.7617 14.5686 70.7617H20.8125C21.3645 70.7617 21.8939 70.9796 22.2843 71.3673C22.6746 71.755 22.8939 72.2809 22.8939 72.8293C22.8939 73.3777 22.6746 73.9036 22.2843 74.2913C21.8939 74.6791 21.3645 74.8969 20.8125 74.8969Z" fill="#12B7B6"/>
<path d="M85.334 62.4916H79.0901C78.5381 62.4916 78.0087 62.2738 77.6184 61.886C77.2281 61.4983 77.0088 60.9724 77.0088 60.424C77.0088 59.8757 77.2281 59.3498 77.6184 58.962C78.0087 58.5743 78.5381 58.3564 79.0901 58.3564H85.334C85.886 58.3564 86.4154 58.5743 86.8057 58.962C87.1961 59.3498 87.4153 59.8757 87.4153 60.424C87.4153 60.9724 87.1961 61.4983 86.8057 61.886C86.4154 62.2738 85.886 62.4916 85.334 62.4916Z" fill="#12B7B6"/>
<path d="M85.334 74.8969H79.0901C78.5381 74.8969 78.0087 74.6791 77.6184 74.2913C77.2281 73.9036 77.0088 73.3777 77.0088 72.8293C77.0088 72.2809 77.2281 71.755 77.6184 71.3673C78.0087 70.9796 78.5381 70.7617 79.0901 70.7617H85.334C85.886 70.7617 86.4154 70.9796 86.8057 71.3673C87.1961 71.755 87.4153 72.2809 87.4153 72.8293C87.4153 73.3777 87.1961 73.9036 86.8057 74.2913C86.4154 74.6791 85.886 74.8969 85.334 74.8969Z" fill="#12B7B6"/>
<path d="M81.1729 43.8832H18.7337C18.1817 43.8832 17.6523 43.6653 17.2619 43.2776C16.8716 42.8898 16.6523 42.3639 16.6523 41.8156V2.53145C16.6523 1.9831 16.8716 1.4572 17.2619 1.06945C17.6523 0.6817 18.1817 0.463867 18.7337 0.463867H81.1729C81.7249 0.463867 82.2543 0.6817 82.6446 1.06945C83.0349 1.4572 83.2542 1.9831 83.2542 2.53145V41.8156C83.2542 42.3639 83.0349 42.8898 82.6446 43.2776C82.2543 43.6653 81.7249 43.8832 81.1729 43.8832ZM20.815 39.748H79.0916V4.59904H20.815V39.748Z" fill="#12B7B6"/>
<path d="M58.2777 50.0863H41.6272C41.0752 50.0863 40.5458 49.8685 40.1555 49.4808C39.7652 49.093 39.5459 48.5671 39.5459 48.0188C39.5459 47.4704 39.7652 46.9445 40.1555 46.5568C40.5458 46.169 41.0752 45.9512 41.6272 45.9512H58.2777C58.8297 45.9512 59.3591 46.169 59.7494 46.5568C60.1397 46.9445 60.359 47.4704 60.359 48.0188C60.359 48.5671 60.1397 49.093 59.7494 49.4808C59.3591 49.8685 58.8297 50.0863 58.2777 50.0863Z" fill="#12B7B6"/>
</svg>
