<svg width="52" height="52" viewBox="0 0 52 52" fill="none" xmlns="http://www.w3.org/2000/svg">
<g clip-path="url(#clip0_919_469)">
<path d="M27.2359 0.616807L29.4207 3.52853C29.649 3.83257 29.9814 4.04172 30.3543 4.11589C30.7271 4.19007 31.1143 4.12406 31.4415 3.93052L34.5741 2.0765C34.7803 1.9545 35.0122 1.8822 35.2512 1.86534C35.4903 1.84847 35.7299 1.8875 35.9513 1.97933C36.1726 2.07116 36.3696 2.21326 36.5265 2.39439C36.6834 2.57552 36.796 2.7907 36.8553 3.02289L37.7598 6.54886C37.8542 6.91704 38.0812 7.23743 38.3972 7.44865C38.7132 7.65987 39.096 7.74707 39.4723 7.69354L43.0776 7.17979C43.3147 7.14599 43.5565 7.16785 43.7837 7.24363C44.0109 7.31942 44.2174 7.44705 44.3868 7.61643C44.5562 7.78581 44.6838 7.99228 44.7596 8.21952C44.8354 8.44675 44.8572 8.68851 44.8234 8.92565L44.3097 12.5309C44.2562 12.9072 44.3434 13.2901 44.5546 13.6061C44.7658 13.9221 45.0862 14.149 45.4544 14.2435L48.9803 15.1479C49.2125 15.2073 49.4277 15.3198 49.6088 15.4767C49.79 15.6336 49.9321 15.8306 50.0239 16.0519C50.1157 16.2733 50.1548 16.513 50.1379 16.752C50.121 16.9911 50.0487 17.2229 49.9267 17.4292L48.0727 20.5617C47.8792 20.889 47.8132 21.2761 47.8873 21.649C47.9615 22.0218 48.1707 22.3542 48.4747 22.5825L51.3864 24.7673C51.578 24.9112 51.7334 25.0976 51.8405 25.312C51.9475 25.5263 52.0032 25.7625 52.0032 26.0021C52.0032 26.2417 51.9475 26.4779 51.8405 26.6922C51.7334 26.9066 51.578 27.093 51.3864 27.2369L48.4747 29.4217C48.1707 29.65 47.9615 29.9824 47.8873 30.3552C47.8132 30.7281 47.8792 31.1153 48.0727 31.4425L49.9267 34.575C50.0487 34.7813 50.121 35.0131 50.1379 35.2522C50.1548 35.4912 50.1157 35.7309 50.0239 35.9523C49.9321 36.1736 49.79 36.3706 49.6088 36.5275C49.4277 36.6844 49.2125 36.7969 48.9803 36.8563L45.4544 37.7608C45.0862 37.8552 44.7658 38.0821 44.5546 38.3981C44.3434 38.7141 44.2562 39.097 44.3097 39.4733L44.8234 43.0786C44.8572 43.3157 44.8354 43.5575 44.7596 43.7847C44.6838 44.0119 44.5562 44.2184 44.3868 44.3878C44.2174 44.5572 44.0109 44.6848 43.7837 44.7606C43.5565 44.8364 43.3147 44.8582 43.0776 44.8244L39.4723 44.3107C39.096 44.2571 38.7132 44.3443 38.3972 44.5556C38.0812 44.7668 37.8542 45.0872 37.7598 45.4553L36.8553 48.9813C36.796 49.2135 36.6834 49.4287 36.5265 49.6098C36.3696 49.7909 36.1726 49.9331 35.9513 50.0249C35.7299 50.1167 35.4903 50.1557 35.2512 50.1389C35.0122 50.122 34.7803 50.0497 34.5741 49.9277L31.4415 48.0737C31.1143 47.8801 30.7271 47.8141 30.3543 47.8883C29.9814 47.9625 29.649 48.1716 29.4207 48.4757L27.2359 51.3874C27.0921 51.5789 26.9056 51.7344 26.6913 51.8414C26.477 51.9485 26.2407 52.0042 26.0011 52.0042C25.7616 52.0042 25.5253 51.9485 25.311 51.8414C25.0967 51.7344 24.9102 51.5789 24.7663 51.3874L22.5815 48.4757C22.3533 48.1716 22.0209 47.9625 21.648 47.8883C21.2751 47.8141 20.888 47.8801 20.5607 48.0737L17.4282 49.9277C17.2219 50.0497 16.9901 50.122 16.751 50.1389C16.512 50.1557 16.2723 50.1167 16.051 50.0249C15.8296 49.9331 15.6327 49.7909 15.4758 49.6098C15.3189 49.4287 15.2063 49.2135 15.147 48.9813L14.2425 45.4553C14.148 45.0872 13.9211 44.7668 13.6051 44.5556C13.2891 44.3443 12.9063 44.2571 12.53 44.3107L8.92467 44.8244C8.68753 44.8582 8.44577 44.8364 8.21854 44.7606C7.99131 44.6848 7.78483 44.5572 7.61545 44.3878C7.44607 44.2184 7.31844 44.0119 7.24265 43.7847C7.16687 43.5575 7.14501 43.3157 7.17881 43.0786L7.69256 39.4733C7.74609 39.097 7.6589 38.7141 7.44767 38.3981C7.23645 38.0821 6.91606 37.8552 6.54788 37.7608L3.02191 36.8563C2.78973 36.7969 2.57455 36.6844 2.39342 36.5275C2.21229 36.3706 2.07018 36.1736 1.97835 35.9523C1.88652 35.7309 1.84749 35.4912 1.86436 35.2522C1.88123 35.0131 1.95352 34.7813 2.07552 34.575L3.92954 31.4425C4.12309 31.1153 4.18909 30.7281 4.11492 30.3552C4.04074 29.9824 3.8316 29.65 3.52755 29.4217L0.61583 27.2369C0.424294 27.093 0.268853 26.9066 0.161802 26.6922C0.054751 26.4779 -0.000976562 26.2417 -0.000976562 26.0021C-0.000976562 25.7625 0.054751 25.5263 0.161802 25.312C0.268853 25.0976 0.424294 24.9112 0.61583 24.7673L3.52755 22.5825C3.8316 22.3542 4.04074 22.0218 4.11492 21.649C4.18909 21.2761 4.12309 20.889 3.92954 20.5617L2.07552 17.4292C1.95352 17.2229 1.88123 16.9911 1.86436 16.752C1.84749 16.513 1.88652 16.2733 1.97835 16.0519C2.07018 15.8306 2.21229 15.6336 2.39342 15.4767C2.57455 15.3198 2.78973 15.2073 3.02191 15.1479L6.54788 14.2435C6.91606 14.149 7.23645 13.9221 7.44767 13.6061C7.6589 13.2901 7.74609 12.9072 7.69256 12.5309L7.17881 8.92565C7.14501 8.68851 7.16687 8.44675 7.24265 8.21952C7.31844 7.99228 7.44607 7.78581 7.61545 7.61643C7.78483 7.44705 7.99131 7.31942 8.21854 7.24363C8.44577 7.16785 8.68753 7.14599 8.92467 7.17979L12.53 7.69354C12.9063 7.74707 13.2891 7.65987 13.6051 7.44865C13.9211 7.23743 14.148 6.91704 14.2425 6.54886L15.147 3.02289C15.2063 2.7907 15.3189 2.57552 15.4758 2.39439C15.6327 2.21326 15.8296 2.07116 16.051 1.97933C16.2723 1.8875 16.512 1.84847 16.751 1.86534C16.9901 1.8822 17.2219 1.9545 17.4282 2.0765L20.5607 3.93052C20.888 4.12406 21.2751 4.19007 21.648 4.11589C22.0209 4.04172 22.3533 3.83257 22.5815 3.52853L24.7663 0.616807C24.9102 0.425271 25.0967 0.269831 25.311 0.16278C25.5253 0.055729 25.7616 0 26.0011 0C26.2407 0 26.477 0.055729 26.6913 0.16278C26.9056 0.269831 27.0921 0.425271 27.2359 0.616807Z" fill="url(#paint0_linear_919_469)"/>
<path d="M22.4087 35.663L13.4473 26.7016L16.7218 23.427L22.4087 29.1139L35.2764 16.2462L38.5509 19.5207L22.4087 35.663Z" fill="white"/>
</g>
<defs>
<linearGradient id="paint0_linear_919_469" x1="7.6164" y1="7.61512" x2="44.3858" y2="44.3846" gradientUnits="userSpaceOnUse">
<stop stop-color="#8CEBFC"/>
<stop offset="0.26" stop-color="#68C8F5"/>
<stop offset="0.58" stop-color="#43A4EE"/>
<stop offset="0.84" stop-color="#2B8EEA"/>
<stop offset="1" stop-color="#2386E8"/>
</linearGradient>
<clipPath id="clip0_919_469">
<rect width="52" height="52" fill="white"/>
</clipPath>
</defs>
</svg>
