<svg width="169" height="159" viewBox="0 0 169 159" fill="none" xmlns="http://www.w3.org/2000/svg">
<g style="mix-blend-mode:multiply" opacity="0.35">
<g style="mix-blend-mode:multiply" opacity="0.35">
<path d="M43.0667 1.91144C45.0071 1.17488 46.6273 2.26034 49.6737 0.942286C50.7215 0.496474 50.8865 0.215423 51.6917 0.0991246C52.7182 0.00858743 53.7499 0.198898 54.6763 0.649643C55.6027 1.10039 56.3888 1.79456 56.9502 2.6577C58.716 5.70085 56.1255 11.322 51.9828 13.2506C46.996 15.5669 39.8068 12.4946 39.1568 8.40479C39.0731 7.05418 39.4022 5.71005 40.1004 4.55046C40.7987 3.39088 41.8331 2.47056 43.0667 1.91144Z" fill="#95EDC7"/>
</g>
</g>
<path d="M89.2574 51.4451C90.9345 51.4451 92.2941 50.087 92.2941 48.4116C92.2941 46.7363 90.9345 45.3782 89.2574 45.3782C87.5803 45.3782 86.2207 46.7363 86.2207 48.4116C86.2207 50.087 87.5803 51.4451 89.2574 51.4451Z" fill="#D3F3F2"/>
<path d="M115.346 55.7771H102.375H89.4033V76.1972H102.375H115.346L105.732 65.992L115.346 55.7771Z" fill="#26C5BF"/>
<path d="M75.7432 156.85L95.1568 137.458L100.91 143.205L116.957 127.185L121.109 123.037L133.208 135.122L138.563 140.481L154.95 156.85H75.7432Z" fill="white"/>
<path d="M75.7429 156.851L95.1565 137.458L100.91 143.205L116.957 127.185L115.996 128.144L89.4906 101.667L82.7186 108.441L56.5331 134.599L47.1319 125.208L15.4453 156.87L75.7429 156.851Z" fill="#D3F3F2"/>
<path d="M144.753 158.324H11.9331L47.1318 123.153L56.533 132.544L81.6901 107.414L83.7469 109.468L56.533 136.653L47.1318 127.262L18.9573 155.416H144.753V158.324Z" fill="#323232"/>
<path d="M114.968 129.171L89.4908 103.721L83.7472 109.468L81.6904 107.414L89.4908 99.6121L117.025 127.117L114.968 129.171Z" fill="#323232"/>
<path d="M158.461 158.304H72.2305L95.1562 135.403L100.909 141.15L115.928 126.157L117.985 128.212L100.909 145.269L95.1562 139.512L79.2644 155.397H151.437L132.179 136.159L134.236 134.095L158.461 158.304Z" fill="#323232"/>
<path d="M132.179 136.159L121.109 125.091L117.985 128.212L115.928 126.157L121.109 120.982L134.236 134.095L132.179 136.159Z" fill="#323232"/>
<path d="M162.925 155.61H5.58838V158.517H162.925V155.61Z" fill="#323232"/>
<path d="M168.814 155.61H165.894V158.517H168.814V155.61Z" fill="#323232"/>
<path d="M2.92029 155.61H0V158.517H2.92029V155.61Z" fill="#323232"/>
<path d="M90.7133 51.2512H87.8027V103.421H90.7133V51.2512Z" fill="#323232"/>
<path d="M118.694 77.6511H87.958V54.3235H118.694L107.711 65.9534L118.694 77.6511ZM90.8395 74.7436H111.961L103.714 66.0212L111.961 57.2988H90.8686L90.8395 74.7436Z" fill="#323232"/>
<path d="M89.2576 52.9278C88.3692 52.9278 87.5007 52.6646 86.762 52.1715C86.0233 51.6785 85.4475 50.9777 85.1076 50.1577C84.7676 49.3378 84.6786 48.4356 84.8519 47.5652C85.0253 46.6947 85.4531 45.8952 86.0813 45.2677C86.7095 44.6401 87.5099 44.2127 88.3813 44.0396C89.2526 43.8664 90.1558 43.9553 90.9766 44.2949C91.7975 44.6346 92.499 45.2097 92.9926 45.9476C93.4862 46.6855 93.7496 47.5531 93.7496 48.4406C93.7509 49.0302 93.6356 49.6143 93.4103 50.1593C93.185 50.7042 92.8542 51.1994 92.4368 51.6164C92.0194 52.0333 91.5237 52.3638 90.9782 52.5888C90.4326 52.8139 89.8479 52.9291 89.2576 52.9278ZM89.2576 46.8705C88.9445 46.8706 88.6383 46.9635 88.378 47.1375C88.1178 47.3115 87.9151 47.5588 87.7957 47.848C87.6763 48.1372 87.6455 48.4553 87.7073 48.762C87.7692 49.0687 87.9207 49.3502 88.1429 49.5707C88.365 49.7913 88.6477 49.941 88.9551 50.0008C89.2625 50.0607 89.5808 50.028 89.8696 49.9069C90.1584 49.7859 90.4047 49.5819 90.5773 49.3209C90.7499 49.0598 90.841 48.7534 90.839 48.4406C90.8429 48.2307 90.8049 48.0221 90.7271 47.8271C90.6494 47.6321 90.5335 47.4545 90.3863 47.3047C90.239 47.1549 90.0634 47.036 89.8696 46.9547C89.6758 46.8735 89.4678 46.8317 89.2576 46.8318V46.8705Z" fill="#323232"/>
</svg>
